<?xml version="1.0" encoding="UTF-8" standalone="no"?>
<!-- Generated by IcoMoon.io -->

<svg
   xmlns:dc="http://purl.org/dc/elements/1.1/"
   xmlns:cc="http://creativecommons.org/ns#"
   xmlns:rdf="http://www.w3.org/1999/02/22-rdf-syntax-ns#"
   xmlns:svg="http://www.w3.org/2000/svg"
   xmlns="http://www.w3.org/2000/svg"
   xmlns:sodipodi="http://sodipodi.sourceforge.net/DTD/sodipodi-0.dtd"
   xmlns:inkscape="http://www.inkscape.org/namespaces/inkscape"
   version="1.1"
   width="32"
   height="32"
   viewBox="0 0 32 32"
   id="svg2"
   inkscape:version="0.91 r13725"
   sodipodi:docname="trim.svg">
  <metadata
     id="metadata10">
    <rdf:RDF>
      <cc:Work
         rdf:about="">
        <dc:format>image/svg+xml</dc:format>
        <dc:type
           rdf:resource="http://purl.org/dc/dcmitype/StillImage" />
      </cc:Work>
    </rdf:RDF>
  </metadata>
  <defs
     id="defs8" />
  <sodipodi:namedview
     pagecolor="#ffffff"
     bordercolor="#666666"
     borderopacity="1"
     objecttolerance="10"
     gridtolerance="10"
     guidetolerance="10"
     inkscape:pageopacity="0"
     inkscape:pageshadow="2"
     inkscape:window-width="1266"
     inkscape:window-height="683"
     id="namedview6"
     showgrid="false"
     inkscape:zoom="8"
     inkscape:cx="15.987338"
     inkscape:cy="17.52092"
     inkscape:window-x="19"
     inkscape:window-y="7"
     inkscape:window-maximized="0"
     inkscape:current-layer="svg2" />
  <path
     style="fill:#000000;fill-opacity:1;fill-rule:evenodd;stroke:none;stroke-width:1px;stroke-linecap:butt;stroke-linejoin:miter;stroke-opacity:1"
     d="m 9.039405,4.703125 c 0,0 -0.6994481,1.5553514 -0.7969667,2.4985882 C 8.1449213,8.14495 8.54984,10.233764 8.54984,10.233764 c 0,0 1.346556,3.022227 2.689194,4.94259 1.342637,1.920362 2.618607,3.287615 2.618605,3.287615 l -4.103241,0.317596 c 0,0 -1.06576,0.243793 -1.6918464,0.880834 -0.6260867,0.637039 -0.7878588,1.456475 -0.7878588,1.456475 -0.4814762,1.877303 -0.2540352,4.435589 0.1798868,5.220486 0.4339221,0.784897 1.8557944,1.85099 1.8557944,1.85099 0,0 1.975595,-1.728993 3.080846,-3.133781 1.100285,-1.398473 3.379109,-4.822399 3.399634,-4.853265 0.01532,0.02304 2.300356,3.458141 3.40191,4.858229 1.105251,1.404786 3.080846,3.13378 3.080846,3.133779 0,0 1.421872,-1.066093 1.855794,-1.85099 0.433922,-0.784896 0.661363,-3.343183 0.179887,-5.220486 0,0 -0.16177,-0.819436 -0.787858,-1.456475 -0.626085,-0.637041 -1.691847,-0.880834 -1.691847,-0.880834 l -4.103241,-0.317596 c 0,0 1.275969,-1.367253 2.618606,-3.287615 1.342638,-1.920364 2.689193,-4.94259 2.689193,-4.94259 0,0 0.404925,-2.0888136 0.307402,-3.0320504 -0.09752,-0.9432368 -0.796967,-2.4985882 -0.796967,-2.4985882 0,1e-7 -2.682237,4.5849136 -3.572689,6.1435006 -0.869194,1.521375 -3.071494,5.71361 -3.178759,5.917708 C 15.68986,16.57282 13.482138,12.369489 12.612094,10.846624 11.721642,9.288041 9.039405,4.703125 9.039405,4.703125 Z m 5.594708,15.03619 -0.19355,0.674892 c 2e-6,0 -1.839825,2.39287 -2.632267,3.458821 -0.79244,1.065953 -2.361299,2.741748 -2.361299,2.741748 0,0 -1.1742359,-1.005859 -1.2387143,-1.982495 -0.064478,-0.976635 -0.1848607,-3.057393 0.7354873,-3.964989 0.920347,-0.907597 4.490338,-0.885795 4.490338,-0.885795 z m 2.598113,0 1.200004,0.04218 c 0,0 3.569991,-0.0218 4.490339,0.885795 0.920347,0.907596 0.799966,2.988354 0.735486,3.964989 -0.06448,0.976636 -1.238714,1.982495 -1.238714,1.982495 0,0 -1.774954,-1.507363 -2.567394,-2.573316 -0.792441,-1.065952 -2.426173,-3.627253 -2.426173,-3.627253 z"
     id="path4267"
     inkscape:connector-curvature="0"
     sodipodi:nodetypes="cscsccscscscscscsccscscscscccscssccccsscscc" />
</svg>
