<svg xmlns="http://www.w3.org/2000/svg" width="32" height="32" viewBox="0 0 32 32"><path d="M 10.523194,4.5292969 C 10.037977,4.5571279 9.5655006,4.7230021 9.1696787,5.0371094 L 5.8728037,7.6542969 C 4.8172786,8.4919165 4.7172021,10.053266 5.6501474,11.152344 l 5.3027346,6.148437 c 0,0 -0.442753,-1.038176 -0.462891,-1.490234 -0.02014,-0.452059 0.242188,-1.128906 0.242188,-1.128906 L 6.9353037,10.208984 C 6.5138777,9.7125132 6.537568,9.0211343 6.9899911,8.6621094 L 10.046632,6.2363281 c 0.226212,-0.1795121 0.515664,-0.2404393 0.800781,-0.1953125 0.285117,0.045126 0.566632,0.1970767 0.777344,0.4453125 0,0 2.869278,3.5686179 3.824219,4.5078129 0.338995,0.333406 0.56754,0.05714 0.972656,0.171875 0.736085,0.208474 1.607422,0.61914 1.607422,0.61914 L 12.757569,5.5097656 C 12.174477,4.822841 11.331893,4.4829125 10.523194,4.5292969 Z m 8.416016,2.2539062 0,4.2226559 0.5,0 0,-4.2226559 -0.5,0 z m 4.818359,1.8554688 -3.039062,2.9296871 0.345703,0.359375 3.041016,-2.9296871 -0.347657,-0.359375 z m -2.289062,4.6542971 -0.0039,0.5 4.222656,0.0332 0.0039,-0.5 -4.222656,-0.0332 z m -1.210938,1.423828 c -0.0204,0.06426 0.911915,1.62732 0.148438,2.224609 0.03516,0.03339 0.07719,0.05388 0.109375,0.0918 l 3.832031,4.513672 c 0.421427,0.49647 0.395779,1.183943 -0.05664,1.542969 l -3.054688,2.425781 c -0.452426,0.359026 -1.156699,0.246471 -1.578125,-0.25 l -3.832031,-4.511719 c -0.76357,0.380156 -2.451896,-0.361894 -2.701172,-0.611328 l 5.384766,6.230469 c 0.932943,1.099077 2.534319,1.310275 3.589843,0.472656 l 3.296875,-2.617187 c 1.055526,-0.837622 1.155603,-2.398969 0.222656,-3.498047 -1.538357,-1.715427 -4.201895,-4.64447 -5.287109,-5.941407 -0.04951,-0.05917 -0.0713,-0.08145 -0.07422,-0.07226 z m -14.4785153,3.064453 -0.00391,0.5 4.2226563,0.0332 0.00391,-0.5 -4.2226563,-0.0332 z m 4.6230473,1.898438 -3.0410161,2.929687 0.3476562,0.359375 3.0390629,-2.929688 -0.345703,-0.359374 z m 1.625,0.921874 0,4.222657 0.5,0 0,-4.222657 -0.5,0 z"/></svg>
