<?xml version="1.0" encoding="UTF-8" standalone="no"?>
<!-- Generated by IcoMoon.io -->

<svg
   xmlns:dc="http://purl.org/dc/elements/1.1/"
   xmlns:cc="http://creativecommons.org/ns#"
   xmlns:rdf="http://www.w3.org/1999/02/22-rdf-syntax-ns#"
   xmlns:svg="http://www.w3.org/2000/svg"
   xmlns="http://www.w3.org/2000/svg"
   xmlns:sodipodi="http://sodipodi.sourceforge.net/DTD/sodipodi-0.dtd"
   xmlns:inkscape="http://www.inkscape.org/namespaces/inkscape"
   version="1.1"
   width="32"
   height="32"
   viewBox="0 0 32 32"
   id="svg2"
   inkscape:version="0.91 r13725"
   sodipodi:docname="cut.svg">
  <metadata
     id="metadata10">
    <rdf:RDF>
      <cc:Work
         rdf:about="">
        <dc:format>image/svg+xml</dc:format>
        <dc:type
           rdf:resource="http://purl.org/dc/dcmitype/StillImage" />
      </cc:Work>
    </rdf:RDF>
  </metadata>
  <defs
     id="defs8">
    <inkscape:perspective
       sodipodi:type="inkscape:persp3d"
       inkscape:vp_x="0 : 16 : 1"
       inkscape:vp_y="0 : 1000 : 0"
       inkscape:vp_z="32 : 16 : 1"
       inkscape:persp3d-origin="16 : 10.666667 : 1"
       id="perspective4214" />
  </defs>
  <sodipodi:namedview
     pagecolor="#ffffff"
     bordercolor="#666666"
     borderopacity="1"
     objecttolerance="10"
     gridtolerance="10"
     guidetolerance="10"
     inkscape:pageopacity="0"
     inkscape:pageshadow="2"
     inkscape:window-width="1275"
     inkscape:window-height="675"
     id="namedview6"
     showgrid="false"
     inkscape:zoom="12.094538"
     inkscape:cx="15.364459"
     inkscape:cy="16.818159"
     inkscape:window-x="0"
     inkscape:window-y="34"
     inkscape:window-maximized="0"
     inkscape:current-layer="svg2" />
  <path
     style="opacity:1;fill:#000000;fill-opacity:1;fill-rule:evenodd;stroke:none;stroke-width:25.95100021;stroke-linecap:round;stroke-linejoin:round;stroke-miterlimit:4;stroke-dasharray:none;stroke-dashoffset:0;stroke-opacity:1"
     d="m 15.335625,4.0533882 0,1.2833027 1.305873,0 0,-1.2833027 -1.305873,0 z m 0.04625,2.1987108 0,1.2833027 1.305871,0 0,-1.2833027 -1.305871,0 z m -0.04625,2.2896024 0,1.2833026 1.305873,0 0,-1.2833026 -1.305873,0 z M 4.3821628,9.825004 l 0,1.69448 9.0882482,0 0,9.437576 -8.9957581,0 0,1.739925 8.9957581,0 0.746526,0 0.279672,0 0,-1.008464 0.885262,0 0,-1.099355 0.605589,0 0.187183,0 0.605589,0 0,1.099355 0.885262,0 0,1.008464 0.279673,0 0.746526,0 8.995756,0 0,-1.739925 -8.995756,0 0,-9.437576 9.088246,0 0,-1.69448 -9.088246,0 -0.526313,0 -0.499886,0 0,1.05391 -1.490851,0 -0.187183,0 -1.490851,0 0,-1.05391 -0.499887,0 -0.526311,0 -9.0882482,0 z m 10.9997082,2.014765 0.605589,0 0.187183,0 0.605589,0 0,1.283302 -0.605589,0 -0.187183,0 -0.605589,0 0,-1.283302 z m 0,2.19871 0.605589,0 0.187183,0 0.605589,0 0,1.283303 -0.605589,0 -0.187183,0 -0.605589,0 0,-1.283303 z m 0,2.198711 0.605589,0 0.187183,0 0.605589,0 0,1.283303 -0.605589,0 -0.187183,0 -0.605589,0 0,-1.283303 z m 0,2.24632 0.605589,0 0.187183,0 0.605589,0 0,1.281139 -0.605589,0 -0.187183,0 -0.605589,0 0,-1.281139 z m 0.04625,4.395258 0,1.283303 1.305871,0 0,-1.283303 -1.305871,0 z m 0.04624,2.198711 0,1.283302 1.305871,0 0,-1.283302 -1.305871,0 z m -0.04624,2.289602 0,1.283303 1.305871,0 0,-1.283303 -1.305871,0 z"
     id="rect4215"
     inkscape:connector-curvature="0" />
</svg>
