<svg xmlns="http://www.w3.org/2000/svg" width="32" height="32" viewBox="0 0 32 32"><path d="m 16.337587,3.96636 -0.572667,5.2524101 -0.667359,-1.7174095 -0.286334,5.2500244 -0.477974,0.102574 -0.189386,-2.626205 -0.383282,5.250024 -0.318774,-0.536226 -0.348586,0.941725 -0.859,-0.302931 -0.381026,-2.929137 -0.383282,3.735365 -0.859,0.405499 L 9.9435571,16.386574 9.2512711,15.141916 8.7035297,15.580346 8.0748093,12.651203 7.5581962,13.660181 7.127568,8.9158379 6.3159139,13.762748 5.8090684,12.11915 5.1705798,14.06568 4.8504904,11.136544 4.1221933,15.883271 3.8260908,14.335682 l -0.4993311,2.174521 0.00633,1.512675 0.1488033,0.395957 1.307665,-0.01197 0,1.817591 0.1867561,0.841543 0.5850658,-0.438429 0.3037459,1.211728 0.4569922,-1.028792 0.5916434,4.966906 0.8338244,-4.947049 0.160515,0.335861 0.1258186,-0.941725 0.2040388,1.34484 0.2739347,-2.456385 0.228967,0.808613 0.4383931,-1.111546 0.3921104,0.741362 0.5638376,-1.650158 0.66736,0.102562 0.322345,0.974657 0.441963,-0.671724 0.504216,3.901407 0.354784,-2.386747 4.540754,-0.05964 -0.05185,-6.93404 c 0,0 -0.0099,-0.198607 0.117239,-0.300546 0.12712,-0.101939 0.356225,-0.07871 0.356225,-0.07871 l 7.922647,0 -0.383282,-0.706046 -0.762053,-0.403114 -0.955948,-0.102562 -0.66736,-0.100181 -1.050641,0.302931 -0.381026,-1.5146589 -0.764308,0.9087959 -0.47572,-3.3322508 -0.764307,3.1295008 -0.286333,-1.0089779 -0.764308,1.0089779 -0.381027,-3.2296829 -0.859,1.412092 z m 3.280436,11.449395 0,7.34431 -3.654698,0.01431 6.251991,6.1946 6.116715,-6.23992 -3.476585,0.01197 0,-7.325227 z" /></svg>
