<svg xmlns="http://www.w3.org/2000/svg" width="32" height="32" viewBox="0 0 32 32"><path d="m 7.2089844,8.0454541 0,1.164062 -1.09375,0 0,3.3496099 19.3691406,0 0,-3.3496099 -1.310547,0 0,-1.164062 -16.9648436,0 z M 6.03125,13.902876 l 0,10.132812 1.0996094,0 0,-4.851562 4.3203126,-5.28125 -4.3203126,0 -0.2734375,0 -0.8261719,0 z m 14.363281,0 4.320313,5.28125 0,4.851562 1.099609,0 0,-10.132812 -0.826172,0 -0.273437,0 -4.320313,0 z m -4.388672,1.041015 -0.0059,0.0078 -3.970703,4.412109 2.166015,0.02539 0,3.908203 3.490235,0 0,-3.900391 2.291015,-0.02539 -3.970703,-4.414063 0,-0.01367 z"/></svg>
