<svg xmlns="http://www.w3.org/2000/svg" width="32" height="32" viewBox="0 0 32 32"><path d="M 3.3598213,4.3431064 3.3066468,10.540124 6.6844932,7.5458084 3.3598213,4.3431064 Z m 6.1100029,1.3644353 0,2.5204843 15.9194318,0 0,-2.5204843 -15.9194318,0 z M 3.3598213,12.323812 3.3066475,18.52083 6.6844939,15.526515 3.359822,12.323812 Z m 15.4357967,0.945182 0,8.154363 -3.643718,-0.01488 6.699984,7.035525 7.127916,-6.983429 -3.805775,-0.01488 0,-8.17669 -6.378407,0 z m -9.216913,0.158771 0,2.520485 5.41367,0 0,-2.520485 -5.41367,0 z m -6.1631772,6.457501 -0.055707,6.197017 3.3778465,-2.994316 -3.32214,-3.202701 z m 6.1100032,1.103952 0,2.468388 2.572632,0 0.106351,0 1.33949,0 0,-1.260243 -1.33949,0 0,-1.208145 -2.6789819,0 z"/></svg>
