<?xml version="1.0" encoding="UTF-8" standalone="no"?>
<svg
   xmlns:dc="http://purl.org/dc/elements/1.1/"
   xmlns:cc="http://creativecommons.org/ns#"
   xmlns:rdf="http://www.w3.org/1999/02/22-rdf-syntax-ns#"
   xmlns:svg="http://www.w3.org/2000/svg"
   xmlns="http://www.w3.org/2000/svg"
   xmlns:sodipodi="http://sodipodi.sourceforge.net/DTD/sodipodi-0.dtd"
   xmlns:inkscape="http://www.inkscape.org/namespaces/inkscape"
   version="1.1"
   width="32"
   height="32"
   viewBox="0 0 32 32"
   id="svg2"
   inkscape:version="0.91 r13725"
   sodipodi:docname="textlable.svg">
  <metadata
     id="metadata10">
    <rdf:RDF>
      <cc:Work
         rdf:about="">
        <dc:format>image/svg+xml</dc:format>
        <dc:type
           rdf:resource="http://purl.org/dc/dcmitype/StillImage" />
      </cc:Work>
    </rdf:RDF>
  </metadata>
  <defs
     id="defs8">
    <inkscape:perspective
       sodipodi:type="inkscape:persp3d"
       inkscape:vp_x="0 : 16 : 1"
       inkscape:vp_y="0 : 1000 : 0"
       inkscape:vp_z="32 : 16 : 1"
       inkscape:persp3d-origin="16 : 10.666667 : 1"
       id="perspective4214" />
  </defs>
  <sodipodi:namedview
     pagecolor="#ffffff"
     bordercolor="#666666"
     borderopacity="1"
     objecttolerance="10"
     gridtolerance="10"
     guidetolerance="10"
     inkscape:pageopacity="0"
     inkscape:pageshadow="2"
     inkscape:window-width="1259"
     inkscape:window-height="683"
     id="namedview6"
     showgrid="false"
     inkscape:zoom="9.0021268"
     inkscape:cx="15.766947"
     inkscape:cy="12.152171"
     inkscape:window-x="14"
     inkscape:window-y="23"
     inkscape:window-maximized="0"
     inkscape:current-layer="svg2" />
  <g
     id="g4205"
     transform="translate(22.772396,-0.11108486)" />
  <g
     transform="translate(-0.22217013,-0.11108486)"
     id="g4208" />
  <g
     id="g4224"
     transform="translate(-0.03927443,0.15709772)" />
  <g
     transform="translate(12.685641,0.15709772)"
     id="g4227" />
  <path
     style="opacity:1;fill:#000000;fill-opacity:1;fill-rule:evenodd;stroke:none;stroke-width:25.95100021;stroke-linecap:round;stroke-linejoin:round;stroke-miterlimit:4;stroke-dasharray:none;stroke-dashoffset:0;stroke-opacity:1"
     d="M 13.072266 5.6210938 L 12.240234 6.3984375 L 14.439453 8.75 L 12.240234 11.099609 L 13.072266 11.878906 L 15.21875 9.5839844 L 17.365234 11.878906 L 18.197266 11.099609 L 15.998047 8.75 L 18.197266 6.3984375 L 17.365234 5.6210938 L 15.21875 7.9160156 L 13.072266 5.6210938 z M 6.0097656 5.9023438 L 6.0097656 7.1992188 L 8.0898438 7.1992188 L 8.0898438 11.517578 L 9.4257812 11.517578 L 9.4257812 7.1992188 L 11.507812 7.1992188 L 11.507812 5.9023438 L 6.0097656 5.9023438 z M 18.892578 5.9023438 L 18.892578 7.1992188 L 20.972656 7.1992188 L 20.972656 11.517578 L 22.308594 11.517578 L 22.308594 7.1992188 L 24.390625 7.1992188 L 24.390625 5.9023438 L 18.892578 5.9023438 z M 6.0097656 12.775391 L 6.0097656 15.052734 L 26.392578 15.052734 L 26.392578 12.775391 L 6.0097656 12.775391 z M 13.072266 17.050781 L 12.240234 17.828125 L 14.439453 20.179688 L 12.240234 22.529297 L 13.072266 23.308594 L 15.21875 21.013672 L 17.365234 23.308594 L 18.197266 22.529297 L 15.998047 20.179688 L 18.197266 17.828125 L 17.365234 17.050781 L 15.21875 19.345703 L 13.072266 17.050781 z M 6.0097656 17.332031 L 6.0097656 18.628906 L 8.0898438 18.628906 L 8.0898438 22.947266 L 9.4257812 22.947266 L 9.4257812 18.628906 L 11.507812 18.628906 L 11.507812 17.332031 L 6.0097656 17.332031 z M 18.892578 17.332031 L 18.892578 18.628906 L 20.972656 18.628906 L 20.972656 22.947266 L 22.308594 22.947266 L 22.308594 18.628906 L 24.390625 18.628906 L 24.390625 17.332031 L 18.892578 17.332031 z M 6.0097656 24.205078 L 6.0097656 26.482422 L 26.392578 26.482422 L 26.392578 24.205078 L 6.0097656 24.205078 z "
     id="rect4863" />
</svg>
