<?xml version="1.0" standalone="no"?>
<!DOCTYPE svg PUBLIC "-//W3C//DTD SVG 1.1//EN" "http://www.w3.org/Graphics/SVG/1.1/DTD/svg11.dtd" >
<svg xmlns="http://www.w3.org/2000/svg">
<metadata>
<json>
<![CDATA[
{
	"fontFamily": "ultraschall",
	"majorVersion": 3,
	"minorVersion": 3,
	"description": "Ultraschall Icons.",
	"copyright": "ultraschall.fm",
	"designer": "Michael McCouman Jr.",
	"designerURL": "http://wikibyte.org",
	"license": "MIT",
	"version": "Version 3.0.3",
	"fontId": "ultraschall",
	"psName": "ultraschall",
	"subFamily": "Regular"
}
]]>
</json>
</metadata>
<defs>
<font id="ultraschall" horiz-adv-x="1024">
<font-face units-per-em="1024" ascent="960" descent="-64" />
<missing-glyph horiz-adv-x="1024" />
<glyph unicode="&#x20;" horiz-adv-x="512" d="" />
<glyph unicode="&#x23;" glyph-name="studio-link" data-tags="studio-link" d="M271.725 775.114c-8.379-11.974-16.096-24.077-20.457-31.16-49.789-80.68-72.718-162.368-73.832-225.372-0.668-37.811 12.827-72.022 21.086-88.846 9.090-18.518 17.11-26.89 26.090-35.203s77.985-59.16 77.985-59.16l0.115 0.168 170.214-119.277c25.492-17.864 60.864-11.156 79.225 15.045l26.859 38.33c18.36 26.2 12.593 61.738-12.901 79.602l-173.829 121.809c-22.407 15.701-51.734 11.386-71.132-7.431-2.041 0.468-4.012 1.058-5.91 1.76-50.878 20.681-37.959 122.253 28.88 227.042 3.076 4.828 9.371 14 12.765 18.753s12.31 16.048 15.826 20.618c75.268 97.93 166.266 144.017 203.455 103.080 1.324-1.55 2.519-3.191 3.672-4.955-10.937-24.543-4.689-53.616 17.892-69.439l175.172-122.752c25.689-18.002 61.139-11.479 79.384 14.557l26.683 38.077c18.245 26.036 12.218 61.498-13.473 79.501l-171.559 120.22 0.115 0.168c0 0-71.805 47.937-82.755 53.604s-21.743 10.389-42.33 12.744c-18.705 2.14-55.56 3.403-90.893-9.876-58.876-22.127-127.697-71.027-186.229-144.853-5.871-7.388-11.749-14.78-20.127-26.754zM438.393 629.496c-18.245-26.036-12.276-61.584 13.414-79.586l175.172-122.752c22.581-15.823 52.039-11.773 71.375 6.884 2.051-0.483 4.002-1.044 5.91-1.76 51.174-20.981 38.914-122.245-27.442-226.421-3.096-4.866-10.668-17.101-13.977-21.914s-9.78-13.86-13.269-18.4c-75.682-98.592-166.743-145.407-203.548-104.643-1.309 1.544-2.534 3.196-3.672 4.955 11.065 24.656 5.112 53.694-17.296 69.396l-173.827 121.809c-25.492 17.864-60.864 11.156-79.225-15.045l-26.859-38.33c-18.36-26.2-12.593-61.738 12.901-79.602l170.214-119.277-0.115-0.168c0 0 71.347-47.503 82.227-53.108s21.487-10.285 41.995-12.507c18.633-2.020 55.396-3.028 90.709 10.507 58.841 22.553 127.795 71.987 186.635 146.325 5.17 6.518 13.911 17.902 22.306 29.864s13.337 20.011 18.278 28.051c49.413 80.217 71.884 161.596 72.587 224.488 0.42 37.743-13.346 71.954-21.742 88.805-9.241 18.547-17.363 27.080-26.427 35.438s-78.632 59.488-78.632 59.488l-0.115-0.168-171.559 120.22c-25.689 18.002-61.080 11.563-79.325-14.473l-26.683-38.077z" />
<glyph unicode="&#x2b;" glyph-name="soundboard" data-tags="soundboard" d="M742.605 873.216c-23.351 0-42.188-20.843-42.188-46.68v-757.18c0-25.837 18.835-46.571 42.188-46.571s42.186 20.734 42.186 46.571v757.18c0 25.837-18.835 46.68-42.186 46.68zM275.258 829.824c-23.351 0-42.186-18.835-42.186-42.186v-684.312c0-23.351 18.835-42.078 42.186-42.078s42.186 18.726 42.186 42.078v684.312c0 23.351-18.835 42.186-42.186 42.186zM628.536 709.618c-23.351 0-42.078-22.024-42.078-49.31v-425.928c0-27.286 18.726-49.199 42.078-49.199s42.188 21.914 42.188 49.199v425.928c0 27.286-18.835 49.31-42.188 49.31zM161.187 669.951c-23.351 0-42.186-18.835-42.186-42.186v-364.454c0-23.351 18.835-42.186 42.186-42.186s42.186 18.835 42.186 42.186v364.454c0 23.351-18.835 42.186-42.186 42.186zM861.606 626.559c-23.351 0-42.078-18.835-42.078-42.186v-273.944c0-23.351 18.726-42.188 42.078-42.188s42.186 18.835 42.186 42.188v273.944c0 23.351-18.835 42.186-42.186 42.186zM391.738 622.833c-23.351 0-42.078-18.835-42.078-42.186v-273.944c0-23.351 18.726-42.186 42.078-42.186s42.186 18.835 42.186 42.186v273.944c0 23.351-18.835 42.186-42.186 42.186zM39.667 552.155c-21.979 0-39.667-17.688-39.667-39.667v-133.904c0-21.979 17.688-39.667 39.667-39.667h5.041c21.979 0 39.667 17.688 39.667 39.667v133.904c0 21.979-17.688 39.667-39.667 39.667h-5.041zM505.918 549.635c-21.339 0-38.463-17.122-38.463-38.463v-130.069c0-21.339 17.122-38.463 38.463-38.463h7.232c21.339 0 38.571 17.122 38.571 38.463v130.069c0 21.339-17.233 38.463-38.571 38.463h-7.232zM978.307 545.91c-21.339 0-38.571-17.122-38.571-38.463v-130.068c0-21.339 17.233-38.463 38.571-38.463h7.232c21.339 0 38.461 17.122 38.461 38.463v130.068c0 21.339-17.122 38.463-38.461 38.463h-7.232z" />
<glyph unicode="&#x30;" glyph-name="mute" data-tags="mute" d="M337.734 758.602l-155.021-158.996 151.638-160.221 155.021 158.996-151.638 160.221zM-4.107 626.835v-53.757h148.593v53.757h-148.593zM474.571 491.654l-36.704-38.524 105.208-109.966 36.62 38.524-105.124 109.966zM681.435 393.595l-155.021-158.996 151.638-160.309 155.021 158.996-151.638 160.309zM871.3 254.298v-53.757h148.593v53.757h-148.593z" />
<glyph unicode="&#x31;" glyph-name="zoom" data-tags="zoom" d="M22.526 913.75c0 0-9.059 0.725-12.659-3.359s-4.22-12.074-4.22-12.074v-733.947h0.090v-184.372c0 0 0.62-7.99 4.22-12.074s12.749-3.359 12.749-3.359h216.813v63.454h-152.531c0 0-7.694-0.405-10.774 3.086s-2.693 11.348-2.693 11.348v671.491h-0.090v121.916c0 0-0.385 7.854 2.693 11.348s10.684 3.086 10.684 3.086h152.531v63.454h-216.813zM795.957 913.75v-63.454h152.531c0 0 7.607 0.406 10.684-3.086 3.079-3.492 2.693-11.348 2.693-11.348v-121.916h-0.090v-671.491c0 0 0.387-7.856-2.693-11.348-3.078-3.491-10.774-3.086-10.774-3.086h-152.531v-63.454h216.813c0 0 9.149-0.725 12.749 3.359s4.22 12.074 4.22 12.074v184.372h0.090v733.947c0 0-0.62 7.99-4.22 12.074s-12.659 3.359-12.659 3.359h-216.813zM455.791 744.356c-0.003 0-0.005 0-0.008 0-8.028 0-15.96-0.429-23.774-1.265-114.945-12.351-204.567-112.912-204.567-235.138 0-8.243 0.407-16.388 1.203-24.413 11.806-119.096 109.034-211.997 227.226-211.997 7.844 0 15.596 0.409 23.236 1.208 44.544 4.663 85.307 22.57 118.555 49.858l16.315-54.388h0.272l-0.18-0.18 148.941-158.863 87.892 74.439-148.223 158.046v0.18l-0.358 0.18-0.358 0.362-0.18-0.18-62.036 25.872c27.826 38.715 44.547 87.468 44.547 140.261 0 7.796-0.364 15.506-1.077 23.108l-0.017 0.577c-12.199 119.791-109.277 212.333-227.241 212.333-0.059 0-0.118 0-0.176 0zM455.611 706.592c0.013 0 0.030 0 0.046 0s0.032 0 0.047 0c0.008 0 0.022 0 0.035 0 96.828 0 176.512-76.281 186.45-174.174l0.25-2.028c0.549-5.594 0.862-12.090 0.862-18.66 0-100.984-73.917-184.027-168.59-193.878-6.241-0.652-12.574-0.986-18.984-0.986-97.048 0-176.876 76.629-186.517 174.844-0.645 6.578-0.976 13.253-0.976 20.010 0 100.738 73.558 183.622 167.898 193.804 6.394 0.695 12.889 1.058 19.464 1.069z" />
<glyph unicode="&#x32;" glyph-name="follow" data-tags="follow" d="M249.4 464.983c0.308-2.975 0.485-6.428 0.485-9.922 0-53.807-41.753-98.055-95.239-103.329l-0.445-0.035c-3.086-0.313-6.667-0.491-10.291-0.491-54.846 0-99.96 40.829-105.42 93.166l-0.037 0.441c-0.33 3.074-0.518 6.64-0.518 10.249 0 53.691 41.574 97.866 94.895 103.295l0.455 0.037c3.187 0.333 6.883 0.523 10.625 0.523 54.728 0 99.766-40.655 105.385-92.828l0.040-0.452zM630.678 469.843c0.457-4.432 0.717-9.576 0.717-14.781 0-80.16-61.795-146.083-140.955-153.94l-0.658-0.053c-4.567-0.466-9.867-0.731-15.231-0.731-81.172 0-147.941 60.828-156.023 138.798l-0.056 0.657c-0.487 4.578-0.766 9.891-0.766 15.269 0 79.988 61.529 145.8 140.444 153.889l0.674 0.056c4.716 0.496 10.187 0.779 15.726 0.779 80.996 0 147.653-60.567 155.97-138.294l0.059-0.673zM693.342 727.237l1.639-545.591 313.43 272.692z" />
<glyph unicode="&#x33;" glyph-name="ripple_one" data-tags="ripple_one" d="M15.869 865.342c-12.369 0-22.322-9.858-22.322-21.983v-218.079c0-12.124 9.953-21.88 22.322-21.88h222.49c12.369 0 22.322 9.756 22.322 21.88v218.079c0 12.124-9.953 21.983-22.322 21.983h-222.49zM394.302 865.342c-12.369 0-22.322-9.858-22.322-21.983v-218.079c0-12.124 9.953-21.88 22.322-21.88h222.49c12.369 0 22.323 9.756 22.323 21.88v218.079c0 12.124-9.953 21.983-22.323 21.983h-222.49zM772.735 865.342c-12.369 0-22.322-9.858-22.322-21.983v-218.079c0-12.124 9.953-21.88 22.322-21.88h222.49c12.369 0 22.322 9.756 22.322 21.88v218.079c0 12.124-9.953 21.983-22.322 21.983h-222.49zM64.81 503.042c-12.369 0-22.322-9.756-22.322-21.88v-126.452c0-12.124 9.953-21.88 22.322-21.88h129.009c12.369 0 22.322 9.756 22.322 21.88v126.452c0 12.124-9.953 21.88-22.322 21.88h-129.009zM441.042 500.883c-12.369 0-22.323-9.756-22.323-21.88v-126.452c0-12.124 9.953-21.88 22.323-21.88h129.009c12.369 0 22.322 9.756 22.322 21.88v126.452c0 12.124-9.953 21.88-22.322 21.88h-129.009zM817.275 500.883c-12.369 0-22.322-9.756-22.322-21.88v-126.452c0-12.124 9.953-21.88 22.322-21.88h129.009c12.369 0 22.323 9.756 22.323 21.88v126.452c0 12.124-9.953 21.88-22.323 21.88h-129.009zM62.609 186.656c-12.369 0-22.322-9.756-22.322-21.88v-126.452c0-12.124 9.953-21.88 22.322-21.88h129.009c12.369 0 22.322 9.756 22.322 21.88v126.452c0 12.124-9.953 21.88-22.322 21.88h-129.009zM438.841 184.499c-12.369 0-22.323-9.756-22.323-21.88v-126.452c0-12.124 9.953-21.88 22.323-21.88h129.009c12.369 0 22.322 9.756 22.322 21.88v126.452c0 12.124-9.953 21.88-22.322 21.88h-129.009zM815.075 184.499c-12.369 0-22.322-9.756-22.322-21.88v-126.452c0-12.124 9.953-21.88 22.322-21.88h129.009c12.369 0 22.322 9.756 22.322 21.88v126.452c0 12.124-9.953 21.88-22.322 21.88h-129.009z" />
<glyph unicode="&#x34;" glyph-name="ripple_all" data-tags="ripple_all" d="M753.804 881.191c-7.023 0-12.594-5.712-12.594-12.778v-195.786c0-7.066 5.571-12.778 12.594-12.778h251.881c7.023 0 12.699 5.712 12.699 12.778v195.786c0 7.066-5.676 12.778-12.699 12.778h-251.881zM9.182 878.973c-7.023 0-12.594-5.712-12.594-12.778v-195.891c0-7.066 5.571-12.673 12.594-12.673h251.881c7.023 0 12.699 5.606 12.699 12.673v195.891c0 7.066-5.676 12.778-12.699 12.778h-251.881zM381.546 878.973c-7.023 0-12.699-5.712-12.699-12.778v-195.891c0-7.066 5.676-12.673 12.699-12.673h251.881c7.023 0 12.594 5.606 12.594 12.673v195.891c0 7.066-5.571 12.778-12.594 12.778h-251.881zM756.008 551.396c-7.023 0-12.594-5.712-12.594-12.778v-195.786c0-7.066 5.571-12.778 12.594-12.778h251.881c7.023 0 12.699 5.712 12.699 12.778v195.786c0 7.066-5.676 12.778-12.699 12.778h-251.881zM11.386 549.177c-7.023 0-12.594-5.712-12.594-12.778v-195.891c0-7.066 5.571-12.673 12.594-12.673h251.881c7.023 0 12.699 5.606 12.699 12.673v195.891c0 7.066-5.676 12.778-12.699 12.778h-251.881zM383.749 549.177c-7.023 0-12.699-5.712-12.699-12.778v-195.891c0-7.066 5.676-12.673 12.699-12.673h251.881c7.023 0 12.594 5.606 12.594 12.673v195.891c0 7.066-5.571 12.778-12.594 12.778h-251.881zM753.804 228.465c-7.023 0-12.594-5.712-12.594-12.778v-195.786c0-7.066 5.571-12.778 12.594-12.778h251.881c7.023 0 12.699 5.712 12.699 12.778v195.786c0 7.066-5.676 12.778-12.699 12.778h-251.881zM9.182 226.247c-7.023 0-12.594-5.712-12.594-12.778v-195.891c0-7.066 5.571-12.673 12.594-12.673h251.881c7.023 0 12.699 5.606 12.699 12.673v195.891c0 7.066-5.676 12.778-12.699 12.778h-251.881zM381.546 226.247c-7.023 0-12.699-5.712-12.699-12.778v-195.891c0-7.066 5.676-12.673 12.699-12.673h251.881c7.023 0 12.594 5.606 12.594 12.673v195.891c0 7.066-5.571 12.778-12.594 12.778h-251.881z" />
<glyph unicode="&#x35;" glyph-name="glue" data-tags="glue" d="M790.077 955.769l-537.23 1.037-9.208-595.196 247.824-239.049-0.032-189.722 71.074-0.033 4.652 189.754 233.964 232.021zM481.093 902.859h91.783c22.243 0 40.124-18.262 40.124-40.979v-250.729c0-22.717-17.881-40.979-40.124-40.979h-91.783c-22.243 0-40.124 18.262-40.124 40.979v250.729c0 22.717 17.881 40.979 40.124 40.979zM529.261 504.544c42.954 0.025 78.962-34.055 83.351-78.891v-0.594c4.396-48.236-29.25-91.1-75.209-95.817-45.992-4.724-86.937 30.538-91.493 78.791-4.565 48.273 29.013 91.296 75.017 96.114 2.771 0.278 5.553 0.41 8.334 0.397z" />
<glyph unicode="&#x36;" glyph-name="marker" data-tags="marker" d="M777.637 957.291l-512.327-1.032-21.41-594.588 247.551-238.78v-189.511l71.024-0.088 4.643 189.597 233.708 231.816zM361.269 893.662l156.752-120.122-154.688-118.057zM544.416 795.896h146.604v-48.84h-146.604zM361.269 622.979l156.752-120.121-154.688-118.058zM544.416 525.215h146.604v-48.84h-146.604z" />
<glyph unicode="&#x37;" glyph-name="cut" data-tags="cut" d="M484.341 945.35v-53.426h54.365v53.426h-54.365zM486.267 853.815v-53.426h54.365v53.426h-54.365zM484.341 758.497v-53.426h54.365v53.426h-54.365zM28.337 705.072v-70.542h378.353v-392.896h-374.502v-72.435h417.225v41.984h36.854v45.767h58.216v-45.767h36.854v-41.984h417.225v72.435h-374.502v392.896h378.353v70.542h-421.075v-43.875h-131.924v43.875h-421.075zM486.267 621.194h58.216v-53.426h-58.216v53.426zM486.267 529.661h58.216v-53.426h-58.216v53.426zM486.267 438.126h58.216v-53.426h-58.216v53.426zM486.267 344.609h58.216v-53.335h-58.216v53.335zM488.192 161.629v-53.426h54.365v53.426h-54.365zM490.118 70.096v-53.426h54.365v53.426h-54.365zM488.192-25.224v-53.426h54.365v53.426h-54.365z" />
<glyph unicode="&#x38;" glyph-name="mouse_select" data-tags="mouse_select" d="M664.413 960l281.76-287.415-2.329-736.336h25.947l6.154 1021.922zM348.888 959.751l-311.533-1.83 6.154-1021.922h25.947l-2.329 736.336zM269.292 646.54l84.442-586.17 134.669 147.323 101.488-159.968 29.996-1.426c0 0 39.908-0.837 44.347 1.988s12.785 33.443 12.785 33.443l9.785 28.157-107.714 154.896 193.316 35.985z" />
<glyph unicode="&#x39;" glyph-name="selection" data-tags="selection" d="M669.763 960l281.76-287.415-2.329-736.336h25.947l6.154 1021.921-311.533 1.83zM354.238 959.751l-311.533-1.83 6.154-1021.921h25.947l-2.329 736.336 281.76 287.415zM714.922 618.195c0 0-71.79-108.654-96.222-151.359-23.83-41.655-103.692-183.607-106.783-189.448-3.299 6.207-82.818 147.6-106.616 189.198-24.432 42.705-96.22 151.359-96.22 151.359s-0.319-16.236-2.994-42.081c-2.676-25.845 8.4-83.082 8.4-83.082s36.929-82.855 73.767-135.474c36.838-52.618 77.509-99.464 77.509-99.464s-52.697 13.172-95.639 0.749c-42.942-12.423-48.022-17.973-65.201-35.428s-23.536-47.486-23.536-47.486c-3.802-53.321 2.482-70.723 14.388-92.23s41.498-26.28 41.498-26.28c0 0 52.34-9.051 82.665 29.44 29.733 37.741 89.776 127.844 92.146 131.399 2.635-3.955 62.316-93.498 91.98-131.149 30.325-38.491 82.665-29.44 82.665-29.44s29.593 4.773 41.498 26.28c11.905 21.507 18.188 38.909 14.388 92.23 0 0-6.358 30.032-23.536 47.486s-22.259 23.005-65.201 35.428c-42.942 12.423-95.639-0.749-95.639-0.749s40.671 46.846 77.509 99.464c36.838 52.618 73.767 135.475 73.767 135.475s11.075 57.236 8.399 83.080c-2.675 25.845-2.994 42.081-2.994 42.081zM623.025 227.906c14.971 0.060 47.344-2.14 66.281-20.791 25.251-24.868 20.066-51.747 18.296-78.507s-30.272-37.424-30.272-37.424c0 0-29.819 2.645-51.562 31.853s-45.907 64.702-45.907 64.702l-18.462 37.258 53.642 2.661c0 0 2.994 0.23 7.984 0.251zM400.976 227.655c4.99-0.020 7.984-0.251 7.984-0.251l53.642-2.661-18.462-37.258c0 0-24.164-35.494-45.907-64.702s-51.562-31.853-51.562-31.853c0 0-28.502 10.664-30.272 37.424s-6.955 53.639 18.296 78.507c18.939 18.651 51.31 20.852 66.283 20.791z" />
<glyph unicode="&#x61;" glyph-name="music" data-tags="musik" d="M549.989 949.134c-12.312 0-22.219-10.748-22.219-24.105v-724.396c-40.282 33.939-100.616 42.506-156.995 22.295-84.375-30.314-133.955-114.692-110.782-188.54 23.167-73.851 110.329-109.253 194.757-79.105 68.823 24.647 116.554 86.478 116.625 151.081 0.252 1.45 0.835 2.77 0.835 4.301v556.114c13.189 1.436 33.276 1.497 61.754-12.336 42.62-20.702 76.712-70.539 93.362-108.869s24.644-55.978 24.515-102.079c-0.167-59.093-15.015-112.13-30.356-139.538s-37.125-55.849-32.338-103.437c25.586 43.547 59.017 90.399 75.733 129.805s30.539 85.349 23.262 161.606c-7.277 76.257-38.275 122.097-68.953 169.188s-78.129 112.715-102.438 159.23c-22.298 42.667-41.252 94.947-44.543 104.116v0.566c0 13.357-9.906 24.105-22.22 24.105z" />
<glyph unicode="&#x63;" glyph-name="mp3" data-tags="mp3" d="M276.16 952.096c-69.834-2.383-171.992-11.804-171.992-11.804l-3.325-55.197-57.941-3.908c0 0-27.298-183.332-24.938-237.080s17.457-106.736 17.457-106.736l73.070-74.4c35.761 19.597 70.040 36.907 110.642 41.065 184.923 16.818 314.008-91.766 333.675-270.913l0.166-1.911c5.964-62.927-20.593-113.502-52.454-168.168l130.843-133.171 408.241 402.587-585.22 597.606c0 0-79.664 15.885-124.193 21.447-11.132 1.39-30.756 1.377-54.033 0.583zM208.827 833.141c11.649 0.033 22.777-3.861 31.589-11.055l0.25-0.166c21.462-17.815 23.583-50.353 4.738-72.737-18.812-22.399-51.494-26.228-73.070-8.561-21.6 17.744-23.834 50.355-4.988 72.82 1.128 1.358 2.321 2.661 3.575 3.906 10.227 10.071 23.901 15.768 37.906 15.794zM267.265 460.146c-8.51-0.015-16.894-0.467-25.155-1.337-121.469-12.622-216.184-115.32-216.184-240.138 0-8.406 0.43-16.712 1.268-24.896 12.444-121.666 115.227-216.584 240.181-216.584 8.276 0 16.453 0.416 24.514 1.229 121.853 12.263 216.976 115.133 216.976 240.221 0 8.144-0.403 16.195-1.19 24.132l-0.085 0.493c-12.88 122.353-115.497 216.881-240.191 216.881-0.047 0-0.092 0-0.138 0zM248.645 366.544h37.49c8.539 0 15.378-11.264 15.378-25.271v-83.294l88.366 0.251c14.007 0.040 25.329-6.839 25.353-15.378l0.085-37.408c0.025-8.539-11.182-15.422-25.188-15.462l-88.614-0.251v-93.686c0-14.007-6.839-25.271-15.378-25.271h-37.49c-8.539 0-15.378 11.264-15.379 25.271v93.436l-88.364-0.251c-14.008-0.039-25.331 6.84-25.356 15.381l-0.082 37.408c-0.025 8.539 11.182 15.422 25.187 15.462l88.614 0.251v83.544c0 14.007 6.839 25.271 15.379 25.271z" />
<glyph unicode="&#x64;" glyph-name="coffee" data-tags="bier" d="M364.159 935.267c-10.915-0.001-21.824-0.263-32.685-0.783-159.657-7.726-283.921-69.245-293.361-145.233h-0.602v-5.966c-0.078-1.956-0.078-3.913 0-5.868v-686.456c-2.532-10.721-2.7-21.537-0.501-32.273 17.856-85.166 177.736-147.391 357.327-139.072 158.811 7.446 283.117 68.157 294.163 143.668h0.801v6.651c0.128 2.509 0.128 5.020 0 7.531v51.833c46.2 23.958 165.439 86.652 211.147 128.216 55.121 50.122 78.79 74.684 99.759 132.519 26.37 72.728 34.188 291.796-48.743 339.463-66.47 38.205-121.379 30.618-259.44 33.921 1.967 9.791-0.155 21.717-2.122 31.508l-0.2 0.978c-17.085 79.183-157.726 139.393-325.545 139.364zM361.151 882.651c144.771 0.040 266.113-47.121 280.828-109.145l0.2-0.783c14.858-66.72-98.556-126.016-253.457-132.519-154.9-6.5-292.763 42.25-308.098 108.949-15.281 66.66 97.604 126.070 252.355 132.812 9.359 0.43 18.762 0.659 28.173 0.685zM864.422 619.814c51.97-24.874 59.867-132.763 21.189-196.61s-135-116.859-196.309-137.424v349.634c65.849-1.518 123.15 9.275 175.12-15.599z" />
<glyph unicode="&#x65;" glyph-name="trim" data-tags="trim" d="M208.596 940.418c0 0-30.488-67.796-34.739-108.911s13.399-132.164 13.399-132.164c0 0 58.695-131.735 117.219-215.442s114.141-143.304 114.141-143.304l-178.856-13.844c0 0-46.455-10.626-73.746-38.395s-34.341-63.486-34.341-63.486c-20.987-81.83-11.073-193.342 7.841-227.556s80.891-80.683 80.891-80.683c0 0 86.114 75.365 134.29 136.598 47.96 60.958 147.291 210.203 148.186 211.548 0.667-1.004 100.269-150.737 148.285-211.764 48.177-61.233 134.29-136.598 134.29-136.598s61.978 46.47 80.891 80.683c18.915 34.213 28.829 145.726 7.841 227.556 0 0-7.052 35.718-34.341 63.486s-73.746 38.395-73.746 38.395l-178.856 13.844c0 0 55.618 59.597 114.141 143.304s117.219 215.442 117.219 215.442c0 0 17.651 91.049 13.399 132.164s-34.739 108.911-34.739 108.911c0 0-116.916-199.851-155.729-267.788-37.887-66.315-133.883-249.050-138.558-257.946-4.502 8.564-100.734 191.783-138.657 258.163-38.813 67.937-155.729 267.788-155.729 267.788zM452.463 285.008l-8.437-29.418c0 0-80.195-104.303-114.738-150.766s-102.927-119.51-102.927-119.51c0 0-51.184 43.844-53.994 86.415s-8.058 133.269 32.060 172.83c40.117 39.561 195.729 38.61 195.729 38.61zM565.711 285.008l52.307-1.839c0 0 155.612 0.951 195.729-38.61s34.87-130.258 32.060-172.83c-2.81-42.57-53.994-86.415-53.994-86.415s-77.369 65.705-111.91 112.168c-34.541 46.463-105.755 158.108-105.755 158.108z" />
<glyph unicode="&#x66;" glyph-name="onAir" data-tags="onAir" d="M74.678 954.458c-20.815-0.34-41.613 1.633-62.36-0.050v-186.528c425.722 12.528 802.42-297.445 803.16-738.753l0.462-10.791c2.727-30.514 1.469-54.709 0.827-85.342l192.299-0.902c1.046 80.679 2.021 13.345 1.701 78.171 0.022 615.546-480.401 944.363-936.090 944.196zM12.318 648.495v-178.341c309.845-0.075 509.298-193.943 517.171-493.075l0.278-3.495c1.046-13.189 1.629-26.411 1.748-39.642h180.744c-0.439 11.021-1.113 22.030-2.023 33.020l-0.462 4.783c-3.848 437.666-320.976 672.655-697.456 676.751zM148.259 230.278c-4.73 0.022-9.457-0.193-14.164-0.643-77.541-7.82-134.095-76.969-126.375-154.52 7.682-77.534 76.698-134.203 154.243-126.651 77.566 7.542 134.366 76.484 126.927 154.059l-0.094 0.92c-7.388 72.062-68.096 126.852-140.538 126.834z" />
<glyph unicode="&#x69;" glyph-name="txt" data-tags="txt" d="M51.152 806.424v-51.233h-51.151v-623.713h51.151v-41.903h930.946v41.903h41.903v623.713h-41.903v51.233h-930.946zM60.482 694.712h903.037v-493.422h-903.037v493.422zM418.374 573.423l-34.127-33.31 98.701-101.073-98.701-101.156 34.127-33.309 97.882 100.255 97.882-100.255 34.127 33.309-98.701 101.156 98.701 101.073-34.127 33.31-97.882-100.255-97.882 100.255zM135.285 564.093v-49.35h93.79v-202.475h50.986v202.475h82.332v49.35h-227.109zM668.481 564.093v-49.35h93.79v-202.475h50.988v202.475h82.332v49.35h-227.109z" />
<glyph unicode="&#x6f;" glyph-name="newitem" data-tags="newitem" d="M358.336 960l-36.426-35.214 111.79-115.797-111.79-115.795 36.426-35.214 110.579 114.585 110.672-114.585 36.423 35.214-111.79 115.795 111.79 115.797-36.423 35.214-110.672-114.585-110.579 114.585zM37.217 958.882v-59.994h108.623v-230.382h52.449v230.382h104.897v59.994h-265.967zM631.011 958.882v-59.994h108.623v-230.382h52.449v230.382h104.897v59.994h-265.969zM35.168 629.287v-111.231h953.664v111.231h-953.664zM39.079 419.307v-483.307h52.449v231.406l206.067 251.901h-258.515zM724.169 419.307l206.067-251.901v-231.406h52.448v483.307h-258.515zM514.842 369.653l-0.282-0.373-189.391-210.445 103.314-1.21v-186.41h166.474v186.037l109.276 1.21-189.391 210.539v0.651z" />
<glyph unicode="&#x70;" glyph-name="newregion" data-tags="newregion" d="M60.962 861.835v-60.253h-56.614v-173.38h1002.568v173.38h-67.836v60.253h-878.119zM0 558.649v-524.486h56.918v251.122l223.624 273.363h-280.542zM743.46 558.649l223.624-273.363v-251.122h56.916v524.486h-280.542zM516.296 504.764l-0.306-0.404-205.527-228.375 112.115-1.313v-202.292h180.659v201.889l118.585 1.313-205.527 228.477v0.707z" />
<glyph unicode="&#x71;" glyph-name="fader" data-tags="fader" d="M462.074 907.942v-455.101h-74.97v-305.235h74.97v-188.806h91.179v188.806h75.097v305.235h-75.097v455.101h-91.179zM853.514 907.942v-183.168h-80.416v-305.235h80.416v-460.739h91.053v460.739h69.777v305.235h-69.777v183.168h-91.053zM70.76 902.435v-183.168h-80.416v-305.235h80.416v-460.739h91.179v460.739h69.651v305.235h-69.651v183.168h-91.179z" />
<glyph unicode="&#x72;" glyph-name="idea" data-tags="idea" d="M511.073 876.122c-13.121 0.085-26.318-0.413-39.715-1.485-7.817 0.003-15.628-0.214-23.405-0.649-94.932-5.411-174.588-37.011-215.253-82.936-123.816-47.468-163.117-123.455-153.054-221.256-84.913-105.852 11.599-167.218 113.247-193.796 61.211-83.732 194.843-103.911 277.083-100.285 11.309 0.645 22.518 1.73 33.541 3.247 40.559-19.98 89.012-33.351 138.496-38.221 205.024-8.597 233.764 122.047 241.698 157.616 55.491 36.191 135.022 143.381 105.047 247.139-37.833 68.394-78.139 111.303-203.366 128.672-96.199 71.534-182.468 101.364-274.319 101.954zM476.887 170.608c-4.424-0.003-8.783-0.069-13.076-0.197-63.199-1.875-112.471-17.080-112.471-35.558 0-1.227 0.217-2.44 0.641-3.635 6.406-18.037 59.934-32.115 125.018-32.115 4.276 0 8.504 0.060 12.67 0.18 63.416 1.818 112.916 17.050 112.916 35.572 0 1.19-0.204 2.367-0.604 3.526l-0.054 0.132c-6.733 18.11-60.126 32.098-125.002 32.098-0.014 0-0.028 0-0.042 0zM287.158 49.635c-2.995-0.029-5.869-0.13-8.697-0.299-41.964-2.094-74.732-19.312-74.732-40.242 0-1.405 0.147-2.793 0.436-4.161 4.303-20.388 39.818-36.293 82.992-36.293 2.857 0 5.679 0.069 8.462 0.205 42.137 2.039 75.042 19.286 75.042 40.26 0 1.368-0.14 2.72-0.413 4.053l-0.067 0.11c-4.431 20.513-39.898 36.366-83.001 36.366-0.008 0-0.017 0-0.024 0z" />
<glyph unicode="&#x73;" glyph-name="mic" data-tags="mic" d="M457.145 937.133c-97.398 0-175.818-70.548-175.818-158.28v-414.335c0-87.732 78.42-158.391 175.818-158.391h106.53c97.398 0 175.818 70.659 175.818 158.391v414.335c0 87.732-78.42 158.28-175.818 158.28zM35.666 548.666c0 0-8.289-20.089-8.289-37.926s8.289-34.527 8.289-34.527h73.045c0 0 1.338-58.46 14.145-142.715 9.623-63.306 50.476-154.946 77.356-183.71 34.078-36.465 82.927-61.169 144.213-77.935 47.562-13.011 104.39-34.347 104.39-34.347l-4.026-124.372h144.273l-10.622 124.372c0 0 45.526 21.337 93.088 34.347 61.288 16.766 110.136 41.47 144.213 77.935 26.88 28.764 67.733 120.403 77.356 183.71 12.809 84.256 14.145 142.715 14.145 142.715h73.045c0 0 8.289 16.691 8.289 34.527s-8.289 37.926-8.289 37.926l-142.777-0.877c0 0 22.257-229.284-58.238-334.099-79.496-103.515-265.878-99.855-270.525-99.748 0 0-1.489 0.001-1.547 0-4.645-0.106-191.029-3.767-270.525 99.748-80.494 104.815-58.238 334.099-58.238 334.099z" />
<glyph unicode="&#x74;" glyph-name="link" data-tags="link" d="M265.327 954.311c-21.417-1.229-42.235-8.606-59.705-22.469l-145.553-115.481c-46.589-36.971-50.969-105.859-9.789-154.369l175.136-206.33c41.178-48.511 111.872-57.82 158.462-20.848l30.337 23.982 70.464-82.425-32.166-25.494c-46.589-36.971-50.969-105.859-9.789-154.369l175.136-206.33c41.178-48.511 111.872-57.82 158.462-20.85l145.553 115.481c46.589 36.971 50.969 105.859 9.789 154.369l-175.136 206.33c-41.178 48.511-111.872 57.82-158.462 20.85l-33.134-26.359-70.464 82.532 34.963 27.763c46.589 36.971 50.969 105.859 9.789 154.369l-175.244 206.33c-25.737 30.32-62.954 45.366-98.649 43.319zM279.634 887.551c12.585-1.993 25.017-8.704 34.317-19.661l169.113-199.2c18.602-21.913 17.495-52.318-2.474-68.165l-31.52-24.955-33.564 39.322c-8.826 10.33-32.607 2.964-53.251-16.528s-30.126-43.468-21.301-53.798l27.97-32.733-23.237-18.364c-19.97-15.847-51.002-10.895-69.603 11.018l-169.113 199.092c-18.602 21.913-17.495 52.427 2.474 68.272l134.902 107.055c9.985 7.923 22.701 10.635 35.286 8.641zM672.185 422.065c12.585-1.993 24.909-8.704 34.21-19.661l169.113-199.2c18.602-21.913 17.494-52.318-2.474-68.165l-134.794-107.055c-19.97-15.847-51.109-10.895-69.711 11.019l-169.113 199.2c-18.602 21.913-17.495 52.318 2.474 68.165l25.388 20.093 36.684-42.995c8.826-10.33 32.607-2.855 53.251 16.636s30.126 43.468 21.301 53.798l-30.982 36.297 29.261 23.226c9.985 7.923 22.809 10.635 35.393 8.641z" />
<glyph unicode="&#x75;" glyph-name="txtlable" data-tags="textlable" d="M358.416 960l-40.841-38.157 107.951-115.429-107.951-115.334 40.841-38.253 105.362 112.649 105.362-112.649 40.841 38.253-107.951 115.334 107.951 115.429-40.841 38.157-105.362-112.648-105.362 112.648zM11.744 946.195v-63.659h102.104v-211.972h65.576v211.972h102.199v63.659h-269.877zM644.111 946.195v-63.659h102.102v-211.972h65.576v211.972h102.199v63.659h-269.878zM11.744 608.824v-111.786h1000.512v111.786h-1000.512zM358.416 398.961l-40.841-38.157 107.951-115.429-107.951-115.332 40.841-38.253 105.362 112.648 105.362-112.648 40.841 38.253-107.951 115.332 107.951 115.429-40.841 38.157-105.362-112.649-105.362 112.649zM11.744 385.156v-63.659h102.104v-211.971h65.576v211.971h102.199v63.659h-269.877zM644.111 385.156v-63.659h102.102v-211.971h65.576v211.971h102.199v63.659h-269.878zM11.744 47.786v-111.786h1000.512v111.786h-1000.512z" />
<glyph unicode="&#x76;" glyph-name="folder" data-tags="folder" d="M77.24 869.729c0 0-29.353-1.844-49.886-23.555s-21.699-46.339-21.699-46.339l-1.173-710.604 305.489 357.5 561.303 4.656 1.243 178.802c0 0 5.792 31.532-12.12 54.174s-44.742 20.636-44.742 20.636l-318.331-0.414-1.876 95.183c0 0 3.174 23.631-21.749 47.855s-53.043 22.105-53.043 22.105zM1028.483 384.515l-680.862 3.959-313.136-352.017h721.467z" />
<glyph unicode="&#x77;" glyph-name="tape" data-tags="tape" d="M231.869 695.151c-0.081 0-0.176 0-0.273 0-8.172 0-16.246-0.42-24.204-1.239-118.41-12.384-210.729-113.27-210.729-235.892 0-8.25 0.418-16.401 1.235-24.432 12.088-118.845 111.233-211.692 232.096-212.681l0.101-0.091 560.952 0.269c6.214 0.101 12.18 0.42 18.084 0.958 118.825 11.854 211.533 111.303 211.533 232.233 0 7.851-0.391 15.612-1.154 23.265l-0.101 0.455c-12.571 118.26-112.56 209.618-234.060 209.618-8.298 0-16.494-0.425-24.572-1.258-118.396-12.188-210.713-111.472-210.713-232.144 0-8.098 0.415-16.097 1.226-23.982 6.303-60.879 36.191-114.821 80.448-152.689l-247.801-0.255c51.097 43.783 83.302 108.625 83.302 181.048 0 7.863-0.38 15.634-1.121 23.3l-0.101 0.539c-12.579 120.159-112.564 212.981-234.059 212.981-0.031 0-0.061 0-0.092 0zM786.508 645.44c16.496-0.341 33.528-3.452 50.688-10.226l-24.81-100.755c-32.579 13.281-51.031 6.491-76.387-11.916l-69.45 75.409c26.159 24.615 70.472 48.512 119.961 47.487zM126.76 615.206l69.185-81.634c-32.34-14.217-45.359-40.070-49.088-71.496l-107.868 1.067c-0.465 48.54 20.289 121.482 87.771 152.065zM337.071 615.206c67.482-30.583 88.237-103.525 87.771-152.065l-107.869-1.067c-3.729 31.426-16.748 57.28-49.088 71.496l69.185 81.634zM971.386 485.639c24.289-68.042-14.28-131.551-49.799-163.714l-75.054 75.409c20.22 23.666 30.010 50.12 18.053 82.435l106.801 5.869zM704.784 419.3c8.866-29.531 12.609-32.907 45.886-42.241l-14.94-104.756c-75.271 22.249-126.993 90.067-134.545 136.68l103.599 10.316zM274.289 386.932l59.581-93.729c-68.427-38.823-160.469-24.518-200.441 3.024l59.493 89.994c28.134-14.49 51.491-16.808 81.367 0.711z" />
<glyph unicode="&#x78;" glyph-name="export" data-tags="export" d="M525.825 940.792l-23.451-215.093-27.329 70.33-11.726-214.995-19.573-4.2-7.755 107.547-15.696-214.995-13.054 21.959-14.275-38.565-35.177 12.406-15.604 119.951-15.696-152.968-35.177-16.606-27.33 16.606-28.35 50.97-22.431-17.955-25.747 119.953-21.156-41.319-17.635 194.287-33.238-198.487-20.756 67.307-26.147-79.713-13.108 119.951-29.825-194.384-12.125 63.376-20.449-89.050 0.26-61.946 6.094-16.215 53.55 0.49v-74.433l7.648-34.462 23.959 17.955 12.439-49.621 18.715 42.13 24.229-203.401 34.146 202.588 6.573-13.754 5.152 38.565 8.355-55.073 11.218 100.592 9.377-33.114 17.953 45.519 16.058-30.36 23.090 67.576 27.33-4.2 13.2-39.913 18.099 27.508 20.648-159.767 14.529 97.74 185.949 2.442-2.123 283.957c0 0-0.406 8.133 4.802 12.307s14.588 3.224 14.588 3.224h324.443l-15.696 28.913-31.207 16.508-39.147 4.2-27.33 4.103-43.026-12.406-15.604 62.027-31.3-37.216-19.481 136.46-31.3-128.157-11.726 41.319-31.3-41.319-15.604 132.26-35.177-57.827zM660.163 471.926v-300.759l-149.664-0.586 256.027-253.676 250.487 255.532-142.371-0.49v299.977z" />
<glyph unicode="&#x79;" glyph-name="grid" data-tags="grid" d="M7.833 912.948l-2.121-247.175 134.729 119.431-132.609 127.742zM251.537 858.526v-100.531h634.963v100.531h-634.963zM7.833 594.628l-2.121-247.175 134.729 119.431-132.609 127.742zM623.506 556.929v-325.246l-145.333 0.593 267.235-280.619 284.304 278.542-151.797 0.593v326.136h-254.409zM255.881 550.597v-100.533h215.929v100.533h-215.929zM10.056 293.032l-2.222-247.175 134.729 119.431-132.506 127.742zM253.759 249v-98.454h160.281v50.266h-53.427v48.189h-106.853z" />
<glyph unicode="&#x7a;" glyph-name="unlink" data-tags="unlink" d="M270.269 954.284c-21.416-1.229-42.27-8.55-59.74-22.413l-145.515-115.515c-46.588-36.97-51.005-105.884-9.827-154.395l234.048-271.375c0 0-19.542 45.823-20.431 65.774s10.689 49.827 10.689 49.827l-167.583 197.41c-18.601 21.913-17.556 52.428 2.414 68.275l134.912 107.067c9.985 7.923 22.76 10.612 35.344 8.621s25.009-8.698 34.31-19.655c0 0 126.642-157.509 168.79-198.962 14.962-14.716 25.049-2.521 42.93-7.586 32.489-9.201 70.948-27.326 70.948-27.326l-232.669 276.977c-25.736 30.319-62.926 45.322-98.619 43.275zM641.729 854.804v-186.376h22.069v186.376h-22.069zM854.397 772.907l-134.136-129.308 15.258-15.862 134.222 129.308-15.345 15.862zM753.364 567.481l-0.172-22.069 186.376-1.465 0.172 22.069-186.376 1.465zM699.917 504.636c-0.901-2.836 40.249-71.825 6.552-98.187 1.552-1.473 3.407-2.378 4.828-4.052l169.135-199.221c18.601-21.913 17.469-52.256-2.499-68.102l-134.825-107.067c-19.969-15.847-51.053-10.878-69.654 11.034l-169.135 199.134c-33.701-16.779-108.22 15.974-119.223 26.982l237.669-274.995c41.177-48.51 111.857-57.832 158.446-20.862l145.515 115.515c46.588 36.97 51.005 105.884 9.827 154.395-67.898 75.715-185.46 204.994-233.357 262.237-2.185 2.611-3.148 3.594-3.276 3.189zM60.877 369.381l-0.172-22.069 186.376-1.465 0.172 22.069-186.376 1.465zM264.924 285.589l-134.222-129.308 15.345-15.862 134.136 129.308-15.258 15.862zM336.647 244.9v-186.376h22.069v186.376h-22.069z" />
<glyph unicode="&#xb4;" glyph-name="ultraschall" data-tags="ultraschall" d="M312.755 820.919c-134.917-56.288-244.703-167.562-291.086-314.505v-0.947c-10.080-32.243-17.487-64.318-20.792-96.625 3.576-9.489 16.585-32.225 20.792-24.63 3.181 32.549 10.047 64.141 19.752 96.625v0.947c44.417 147.244 148.878 259.524 277.572 316.4 2.65 5.912-0.789 19.515-6.238 22.735zM712.998 820.919c-5.449-3.22-8.887-16.824-6.238-22.735 128.693-56.876 233.155-169.155 277.572-316.4v-0.947c9.706-32.484 16.571-64.076 19.752-96.625 4.207-7.595 17.216 15.141 20.792 24.63-3.305 32.307-10.712 64.382-20.792 96.625v0.947c-46.384 146.945-156.169 258.217-291.086 314.505zM312.755 691.138c-85.145-49.862-152.848-131.403-184.008-234.932v-1.894c-21.346-71.608-19.657-144.182-4.158-212.197 11.231-11.828 22.203-18.561 35.346-29.366 0.362 6.003 4.254 5.035 3.119 10.42s-3.34 14.276-12.475 49.26c-9.135 34.984-13.784 99.634 6.238 168.62v1.894c27.31 93.201 85.046 165.386 158.018 212.197 3.022 3.328 2.919 26.262 1.040 34.103-0.263 1.094-3.119 1.894-3.119 1.894zM712.998 691.138c0 0-2.857-0.8-3.119-1.894-1.88-7.841-1.983-30.775 1.040-34.103 72.972-46.811 130.708-118.996 158.018-212.197v-1.894c20.022-68.986 15.372-133.637 6.238-168.62s-11.34-43.874-12.475-49.26c-1.135-5.386 2.757-4.417 3.119-10.421 13.144 10.806 24.115 17.538 35.346 29.366 15.498 68.014 17.188 140.588-4.158 212.197v1.894c-31.16 103.529-98.863 185.071-184.008 234.932zM328.348 576.514c-46.648-36.937-79.004-83.916-97.722-145.885l-1.040-0.947c-33.177-110.896-0.752-225.692 74.851-302.19l103.959-32.209 4.158 6.632c-121.689 51.035-181.515 188.931-146.583 310.717 17.298 59.124 45.656 92.077 82.128 126.939 0.43 8.315-10.908 35.397-19.752 36.945zM697.404 576.514c-8.844-1.548-20.183-28.63-19.752-36.945 36.472-34.862 64.83-67.815 82.128-126.939 34.932-121.785-24.894-259.682-146.583-310.716l4.158-6.632 103.959 32.209c75.602 76.5 108.027 191.295 74.851 302.19l-1.040 0.947c-18.718 61.969-51.074 108.948-97.722 145.885zM387.605 498.834c-29.715-24.503-53.358-57.637-65.494-97.572v-0.947c-32.561-108.182 27.121-222.847 134.108-255.772 18.326-5.64 36.844-8.208 55.098-8.526 1.027-0.018 2.093 0.004 3.119 0 18.254 0.319 36.773 2.886 55.098 8.526 106.987 32.925 166.669 147.591 134.108 255.772v0.947c-12.136 39.935-35.78 73.069-65.494 97.572-12.213-11.391-25.184-20.741-39.505-28.419 27.292-19.377 48.699-47.714 59.257-82.416 24.87-82.533-21.203-170.027-102.92-195.145-13.563-4.169-27.074-6.277-40.544-6.632-1.025 0.007-2.093-0.027-3.119 0-13.47 0.353-26.982 2.462-40.544 6.632-81.717 25.119-127.79 112.612-102.92 195.145 10.558 34.702 31.964 63.039 59.257 82.416-14.32 7.678-27.291 17.029-39.505 28.419zM508.198 450.522c-44.307-3.043-84.97-32.018-98.761-76.731-17.731-58.043 15.551-119.695 73.811-137.359 8.405-2.549 16.563-2.596 24.95-2.842 4.389-0.448 6.318 0 9.356 0 8.2 0.272 16.734 0.35 24.95 2.842 58.26 17.665 91.542 79.317 73.811 137.359-13.791 44.714-54.454 73.688-98.761 76.731-3.291 0.5-8.702 0-9.356 0z" />
<glyph unicode="&#xdf;" glyph-name="ultraschall-full" data-tags="ultraschall-full" d="M310.425 905.381c-134.918-56.73-245.037-168.53-291.42-316.629v-1.065c-10.080-32.497-17.429-65.519-20.733-98.081 3.577-9.564 16.526-32.175 20.733-24.52 3.181 32.805 9.876 64.275 19.582 97.014v1.065c44.417 148.402 148.904 262.505 277.597 319.828 2.649 5.959-0.31 19.143-5.759 22.387zM710.119 905.381c-5.449-3.246-8.409-16.43-5.759-22.387 128.693-57.323 233.181-171.426 277.597-319.828v-1.065c9.706-32.739 16.4-64.21 19.582-97.014 4.208-7.655 17.157 14.956 20.733 24.52-3.305 32.562-10.654 65.583-20.733 98.081v1.065c-46.384 148.099-156.502 259.899-291.42 316.629zM310.425 774.252c-85.145-50.253-153.138-132.33-184.297-236.673v-2.132c-21.346-72.171-20.106-144.67-4.607-213.219 11.231-11.921 22.564-18.961 35.708-29.85 0.362 6.050 4.59 5.233 3.456 10.66s-3.536 13.781-12.67 49.040c-9.134 35.259-14.262 101.047 5.759 170.575v2.132c27.309 93.934 85.984 166.040 158.956 213.219 3.021 3.354 1.879 27.278 0 35.181-0.265 1.102-2.304 1.067-2.304 1.067zM710.119 774.252c0 0-2.041 0.036-2.304-1.067-1.88-7.903-3.021-31.827 0-35.181 72.972-47.179 131.647-119.285 158.956-213.219v-2.132c20.022-69.528 14.893-135.315 5.759-170.575s-11.535-43.612-12.67-49.040c-1.135-5.429 3.094-4.611 3.456-10.66 13.144 10.891 24.477 17.93 35.708 29.85 15.498 68.549 16.739 141.047-4.607 213.219v2.132c-31.159 104.343-99.152 186.419-184.297 236.673zM325.399 659.113c-46.648-37.227-79.189-84.665-97.908-147.121v-1.065c-33.177-111.767-0.731-227.803 74.871-304.902l103.667-31.982 3.456 6.396c-121.688 51.436-181.218 190.689-146.286 313.432 17.297 59.589 45.309 92.795 81.782 127.931 0.431 8.38-10.738 35.754-19.582 37.313zM695.145 659.113c-8.844-1.56-20.012-28.933-19.582-37.313 36.472-35.136 64.484-68.342 81.782-127.931 34.932-122.743-24.597-261.995-146.286-313.432l3.456-6.396 103.667 31.982c75.602 77.101 108.048 193.135 74.871 304.902v1.065c-18.719 62.456-51.26 109.894-97.908 147.121zM385.296 581.289c-29.714-24.696-53.52-58.898-65.656-99.147v-1.065c-32.561-109.032 26.629-223.745 133.615-256.928 18.326-5.684 37.036-8.208 55.289-8.528 1.027-0.018 2.43 0.003 3.456 0 18.253 0.32 36.963 2.845 55.289 8.528 106.987 33.184 166.176 147.896 133.615 256.928v1.065c-12.136 40.249-35.941 74.45-65.656 99.147-12.213-11.481-24.842-21.046-39.163-28.785 27.292-19.529 48.187-48.181 58.745-83.155 24.871-83.182-20.798-171.911-102.515-197.228-13.563-4.202-26.844-6.039-40.315-6.396-1.025 0.007-2.429-0.028-3.456 0-13.471 0.357-26.752 2.194-40.315 6.396-81.717 25.317-127.386 114.045-102.515 197.228 10.558 34.974 31.453 63.626 58.745 83.155-14.321 7.739-26.95 17.304-39.163 28.785zM505.089 532.249c-44.307-3.067-84.117-32.76-97.908-77.825-17.732-58.498 15.459-120.788 73.719-138.592 8.405-2.569 15.802-1.884 24.189-2.132 4.39-0.452 7.328 0 10.367 0 8.2 0.276 15.974-0.379 24.189 2.132 58.26 17.804 91.45 80.093 73.719 138.592-13.791 45.065-53.6 74.758-97.908 77.825-3.292 0.505-9.714 0-10.367 0zM478.596 122.869c-3.731-0.055-7.337-0.357-10.367-1.065-24.282-5.689-37.339-25.016-29.948-43.709 0.89-2.252 2.092-4.398 3.456-6.396 0.897-1.297 2.376-2.815 3.456-4.264 0.557-0.598 0.551-1.567 1.152-2.132 0.317-0.4 0.826-0.676 1.152-1.065 2.012-2.403 3.617-3.027 5.759-4.264 2.078-1.2 4.565-2.374 6.911-3.199 8.685-3.050 18.503-3.919 26.493-7.463 2.176-0.965 5.5-3.323 3.456-7.463s-6.688-6.805-24.189-5.331c-8.726 0.637-15.972 6.331-21.885 9.595-2.918 1.61-4.607 1.065-4.607 1.065v-26.653c12.662-8.903 32.105-12.114 50.682-9.595 27.089 3.673 36.851 27.947 31.1 43.709-1.52 3.496-2.993 7.819-5.759 10.66s-5.479 5.361-9.215 7.463c-3.055 2.123-6.836 3.164-9.215 4.264-1.147 0.362-2.275 0.748-3.456 1.065-1.496 0.431-3.054 0.737-4.607 1.065-5.994 1.448-11.052 3.080-16.126 5.331-2.176 0.964-4.348 1.191-2.304 5.331s7.408 7.605 20.733 6.396c8.3-0.752 21.885-8.528 21.885-8.528l1.152 26.653c-7.37 5.504-15.056 7.702-25.341 8.528-2.964 0.236-6.636 0.055-10.367 0zM576.504 122.869c-22.67-1.128-28.117-6.821-36.859-13.859s-11.933-21.145-13.822-29.85c-1.889-8.706-1.69-16.947-1.152-23.454s1.63-11.603 4.607-18.123c2.978-6.521 6.845-11.445 12.67-15.991s15.446-9.001 24.189-10.66c8.743-1.661 18.463-1.14 27.645 0s24.189 7.463 24.189 7.463l-1.152 25.586c0 0-11.553-4.986-18.43-6.396s-15.891-1.82-23.037-1.065c-7.146 0.753-10.419 3.503-13.822 7.463s-3.662 8.107-4.607 13.859c-0.947 5.752-2.303 12.708 0 20.255s6.74 14.731 13.822 17.058c7.083 2.327 21.102 1.382 28.796 0s17.278-6.396 17.278-6.396l1.152 25.586c0 0-18.797 9.656-41.467 8.528zM5.183 121.804v-63.966c-1.206-33.847 14.669-49.020 47.226-49.040 32.896-0.021 50.374 17.107 48.378 49.040v63.966h-14.974v-54.371c-1.686-26.689-2.43-44.547-33.404-44.776-30.973-0.233-32.252 19.914-32.252 44.776v54.371h-14.974zM105.395 121.804v-110.874h73.719v12.793h-58.745v98.081h-14.974zM144.558 121.804v-13.859h40.315v-97.014h16.126v97.014h39.163v13.859h-95.604zM242.466 121.804v-110.873h16.126v42.644h27.645l28.796-42.644h14.974l2.304 1.065-31.1 44.776c15.017 3.653 26.493 15.968 26.493 30.917v2.132c0 17.915-16.352 31.982-35.708 31.982h-49.53zM332.31 11.996v-1.065h16.126l14.974 34.115h46.074l14.974-34.115h16.126l-46.074 110.874h-14.974l-47.226-109.808zM623.73 121.804v-110.874h32.252v42.644h34.556v-42.644h31.1v110.874h-31.1v-42.644h-34.556v42.644h-32.252zM767.712 121.804l-44.922-110.874h33.404l9.215 25.586h35.708l9.215-25.586h33.404l-46.074 110.874h-29.948zM844.886 121.804v-110.874h80.63v26.653h-50.682v84.221h-29.948zM930.124 121.804v-110.874h80.63v26.653h-50.682v84.221h-29.948zM257.44 107.944h32.252c12.583 0 23.037-8.142 23.037-19.19v-1.065c0-9.666-7.998-17.276-18.43-19.19h-36.859v39.445zM386.448 100.482l17.278-41.577h-34.556l17.278 41.577zM782.686 89.82l10.367-29.85h-20.733l10.367 29.85z" />
</font>
</defs>
</svg>
