<svg xmlns="http://www.w3.org/2000/svg" width="32" height="32" viewBox="0 0 32 32"><path d="m 4.6247717,5.1761245 c 0,0 -0.2105389,-0.016832 -0.2941819,0.078058 -0.083643,0.09489 -0.098061,0.2805863 -0.098061,0.2805863 l 0,1.116016 0,15.9406762 0.00208,0 0,3.168726 0,1.116016 c 0,1e-6 0.014418,0.185695 0.098061,0.280586 0.083643,0.09489 0.2962682,0.07806 0.2962682,0.07806 l 5.0386464,0 0,-1.474661 -3.5447869,0 c 0,0 -0.1788246,0.0094 -0.2503675,-0.07173 C 5.800886,25.607298 5.809838,25.42475 5.809838,25.424749 l 0,-15.6052379 -0.00208,0 0,-2.8332885 c 0,0 -0.00895,-0.1825452 0.062592,-0.2637089 0.071543,-0.081164 0.248281,-0.071728 0.2482812,-0.071728 l 3.5447863,0 0,-1.4746601 -5.038646,0 z m 17.9743023,0 0,1.4746601 3.544787,0 c 0,0 0.176794,-0.00943 0.24828,0.071729 0.07156,0.081164 0.06259,0.2637088 0.06259,0.2637088 l 0,2.8332893 -0.0021,0 0,15.6052373 c 0,1e-6 0.009,0.182547 -0.06259,0.263709 -0.07154,0.08113 -0.250368,0.07173 -0.250368,0.07173 l -3.544786,0 0,1.474661 5.038646,0 c 0,0 0.212626,0.01683 0.296268,-0.07806 0.08364,-0.09489 0.09806,-0.280585 0.09806,-0.280587 l 0,-1.116016 0,-3.168725 0.0021,0 0,-15.9406773 0,-1.1160161 c 1e-6,0 -0.01442,-0.185696 -0.09806,-0.2805862 -0.08364,-0.09489 -0.294182,-0.078058 -0.294182,-0.078058 l -5.038646,0 z M 14.69372,9.112771 a 5.3086166,5.4941402 0 0 0 -0.529945,0.027426 5.3086166,5.4941402 0 0 0 -4.7507245,6.010454 5.3086166,5.4941402 0 0 0 5.8001815,4.923973 5.3086166,5.4941402 0 0 0 2.766561,-1.151882 l 0.390156,1.255255 0.0063,0 -0.0042,0.0042 3.46133,3.691925 2.042583,-1.729931 -3.444641,-3.672938 0,-0.0042 -0.0083,-0.0042 -0.0083,-0.0084 -0.0042,0.0042 -1.4417,-0.601256 a 5.3086166,5.4941402 0 0 0 1.011902,-3.774203 l -0.0021,-0.03586 A 5.3086166,5.4941402 0 0 0 14.69372,9.112771 Z m -0.0042,0.8776233 a 4.3572979,4.5283784 0 0 1 0.0021,0 4.3572979,4.5283784 0 0 1 4.335531,4.0674457 l 0.0042,0.02742 a 4.3572979,4.5283784 0 0 1 -3.916164,4.94085 4.3572979,4.5283784 0 0 1 -4.759069,-4.061117 4.3572979,4.5283784 0 0 1 3.899473,-4.951399 4.3572979,4.5283784 0 0 1 0.433971,-0.0232 z" /></svg>
