<svg xmlns="http://www.w3.org/2000/svg" width="32" height="32" viewBox="0 0 32 32"><path d="m 15.335625,4.0533882 0,1.2833027 1.305873,0 0,-1.2833027 -1.305873,0 z m 0.04625,2.1987108 0,1.2833027 1.305871,0 0,-1.2833027 -1.305871,0 z m -0.04625,2.2896024 0,1.2833026 1.305873,0 0,-1.2833026 -1.305873,0 z M 4.3821628,9.825004 l 0,1.69448 9.0882482,0 0,9.437576 -8.9957581,0 0,1.739925 8.9957581,0 0.746526,0 0.279672,0 0,-1.008464 0.885262,0 0,-1.099355 0.605589,0 0.187183,0 0.605589,0 0,1.099355 0.885262,0 0,1.008464 0.279673,0 0.746526,0 8.995756,0 0,-1.739925 -8.995756,0 0,-9.437576 9.088246,0 0,-1.69448 -9.088246,0 -0.526313,0 -0.499886,0 0,1.05391 -1.490851,0 -0.187183,0 -1.490851,0 0,-1.05391 -0.499887,0 -0.526311,0 -9.0882482,0 z m 10.9997082,2.014765 0.605589,0 0.187183,0 0.605589,0 0,1.283302 -0.605589,0 -0.187183,0 -0.605589,0 0,-1.283302 z m 0,2.19871 0.605589,0 0.187183,0 0.605589,0 0,1.283303 -0.605589,0 -0.187183,0 -0.605589,0 0,-1.283303 z m 0,2.198711 0.605589,0 0.187183,0 0.605589,0 0,1.283303 -0.605589,0 -0.187183,0 -0.605589,0 0,-1.283303 z m 0,2.24632 0.605589,0 0.187183,0 0.605589,0 0,1.281139 -0.605589,0 -0.187183,0 -0.605589,0 0,-1.281139 z m 0.04625,4.395258 0,1.283303 1.305871,0 0,-1.283303 -1.305871,0 z m 0.04624,2.198711 0,1.283302 1.305871,0 0,-1.283302 -1.305871,0 z m -0.04624,2.289602 0,1.283303 1.305871,0 0,-1.283303 -1.305871,0 z"/></svg>
