<svg xmlns="http://www.w3.org/2000/svg" width="32" height="32" viewBox="0 0 32 32"><path d="m 19.555608,8.5991494 c -0.416221,0 -0.751954,0.3715031 -0.751954,0.8320312 l 0,13.4960934 c 0,0.460528 0.335733,0.830079 0.751954,0.830079 0.41622,-10e-7 0.751953,-0.369551 0.751953,-0.830079 l 0,-13.4960934 c 0,-0.4605281 -0.335733,-0.8320312 -0.751953,-0.8320312 z m -8.330079,0.7734375 c -0.41622,0 -0.751953,0.3357324 -0.751953,0.7519531 l 0,12.197266 c 0,0.41622 0.335733,0.75 0.751953,0.75 0.416221,0 0.751953,-0.33378 0.751953,-0.75 l 0,-12.197266 c 0,-0.4162207 -0.335732,-0.7519531 -0.751953,-0.7519531 z m 6.296875,2.1425781 c -0.41622,0 -0.75,0.392549 -0.75,0.878906 l 0,7.591797 c 0,0.486357 0.33378,0.876953 0.75,0.876953 0.416221,0 0.751954,-0.390596 0.751954,-0.876953 l 0,-7.591797 c 0,-0.486357 -0.335733,-0.878906 -0.751954,-0.878906 z m -8.3300779,0.707031 c -0.4162207,0 -0.7519531,0.335733 -0.7519531,0.751953 l 0,6.496094 c 0,0.416221 0.3357324,0.751953 0.7519531,0.751953 0.4162205,0 0.7519525,-0.335732 0.7519525,-0.751953 l 0,-6.496094 c 0,-0.41622 -0.335732,-0.751953 -0.7519525,-0.751953 z m 12.4843749,0.773438 c -0.41622,0 -0.75,0.335732 -0.75,0.751953 l 0,4.882812 c 0,0.416221 0.33378,0.751954 0.75,0.751954 0.416221,0 0.751953,-0.335733 0.751953,-0.751954 l 0,-4.882812 c 0,-0.416221 -0.335732,-0.751953 -0.751953,-0.751953 z m -8.375,0.06641 c -0.41622,0 -0.75,0.335732 -0.75,0.751953 l 0,4.882813 c 0,0.41622 0.33378,0.751953 0.75,0.751953 0.416221,0 0.751953,-0.335733 0.751953,-0.751953 l 0,-4.882813 c 0,-0.416221 -0.335732,-0.751953 -0.751953,-0.751953 z M 7.0263105,14.32181 c -0.3917371,0 -0.7070312,0.315294 -0.7070312,0.707031 l 0,2.386719 c 0,0.391737 0.3152941,0.707031 0.7070312,0.707031 l 0.089844,0 c 0.3917371,0 0.7070312,-0.315294 0.7070312,-0.707031 l 0,-2.386719 c 0,-0.391737 -0.3152941,-0.707031 -0.7070312,-0.707031 l -0.089844,0 z m 8.3105475,0.04492 c -0.38035,0 -0.685547,0.305198 -0.685547,0.685547 l 0,2.31836 c 0,0.380349 0.305197,0.685547 0.685547,0.685547 l 0.128906,0 c 0.380349,0 0.6875,-0.305198 0.6875,-0.685547 l 0,-2.31836 c 0,-0.380349 -0.307151,-0.685547 -0.6875,-0.685547 l -0.128906,0 z m 8.419921,0.06641 c -0.380349,0 -0.6875,0.305197 -0.6875,0.685547 l 0,2.318359 c 0,0.380349 0.307151,0.685547 0.6875,0.685547 l 0.128907,0 c 0.380349,0 0.685546,-0.305198 0.685546,-0.685547 l 0,-2.318359 c 0,-0.38035 -0.305197,-0.685547 -0.685546,-0.685547 l -0.128907,0 z"/></svg>
