<?xml version="1.0" encoding="UTF-8" standalone="no"?>
<!-- Generated by IcoMoon.io -->

<svg
   xmlns:dc="http://purl.org/dc/elements/1.1/"
   xmlns:cc="http://creativecommons.org/ns#"
   xmlns:rdf="http://www.w3.org/1999/02/22-rdf-syntax-ns#"
   xmlns:svg="http://www.w3.org/2000/svg"
   xmlns="http://www.w3.org/2000/svg"
   xmlns:sodipodi="http://sodipodi.sourceforge.net/DTD/sodipodi-0.dtd"
   xmlns:inkscape="http://www.inkscape.org/namespaces/inkscape"
   version="1.1"
   width="32"
   height="32"
   viewBox="0 0 32 32"
   id="svg2"
   inkscape:version="0.91 r13725"
   sodipodi:docname="grid.svg">
  <metadata
     id="metadata10">
    <rdf:RDF>
      <cc:Work
         rdf:about="">
        <dc:format>image/svg+xml</dc:format>
        <dc:type
           rdf:resource="http://purl.org/dc/dcmitype/StillImage" />
      </cc:Work>
    </rdf:RDF>
  </metadata>
  <defs
     id="defs8">
    <inkscape:perspective
       sodipodi:type="inkscape:persp3d"
       inkscape:vp_x="0 : 16 : 1"
       inkscape:vp_y="0 : 1000 : 0"
       inkscape:vp_z="32 : 16 : 1"
       inkscape:persp3d-origin="16 : 10.666667 : 1"
       id="perspective4214" />
  </defs>
  <sodipodi:namedview
     pagecolor="#ffffff"
     bordercolor="#666666"
     borderopacity="1"
     objecttolerance="10"
     gridtolerance="10"
     guidetolerance="10"
     inkscape:pageopacity="0"
     inkscape:pageshadow="2"
     inkscape:window-width="1276"
     inkscape:window-height="689"
     id="namedview6"
     showgrid="false"
     inkscape:zoom="12.094538"
     inkscape:cx="17.320606"
     inkscape:cy="15.766093"
     inkscape:window-x="0"
     inkscape:window-y="11"
     inkscape:window-maximized="0"
     inkscape:current-layer="svg2" />
  <path
     style="opacity:1;fill:#000000;fill-opacity:1;fill-rule:evenodd;stroke:none;stroke-width:25.95100021;stroke-linecap:round;stroke-linejoin:round;stroke-miterlimit:4;stroke-dasharray:none;stroke-dashoffset:0;stroke-opacity:1"
     d="M 3.3598213,4.3431064 3.3066468,10.540124 6.6844932,7.5458084 3.3598213,4.3431064 Z m 6.1100029,1.3644353 0,2.5204843 15.9194318,0 0,-2.5204843 -15.9194318,0 z M 3.3598213,12.323812 3.3066475,18.52083 6.6844939,15.526515 3.359822,12.323812 Z m 15.4357967,0.945182 0,8.154363 -3.643718,-0.01488 6.699984,7.035525 7.127916,-6.983429 -3.805775,-0.01488 0,-8.17669 -6.378407,0 z m -9.216913,0.158771 0,2.520485 5.41367,0 0,-2.520485 -5.41367,0 z m -6.1631772,6.457501 -0.055707,6.197017 3.3778465,-2.994316 -3.32214,-3.202701 z m 6.1100032,1.103952 0,2.468388 2.572632,0 0.106351,0 1.33949,0 0,-1.260243 -1.33949,0 0,-1.208145 -2.6789819,0 z"
     id="rect4217"
     inkscape:connector-curvature="0" />
</svg>
