<svg xmlns="http://www.w3.org/2000/svg" width="32" height="32" viewBox="0 0 32 32"><path d="M 22.310112,4.4776858 10.119264,4.4541514 9.9103295,17.960383 l 5.6236385,5.424505 -7.21e-4,4.305176 1.612816,7.36e-4 0.105566,-4.305912 5.309138,-5.265027 z m -7.01147,1.2006287 2.082747,0 c 0.504751,0 0.910515,0.4144102 0.910515,0.9299152 l 0,5.6895543 c 0,0.515505 -0.405764,0.929914 -0.910515,0.929914 l -2.082747,0 c -0.50475,0 -0.910514,-0.414409 -0.910514,-0.929914 l 0,-5.6895543 c 0,-0.515505 0.405764,-0.9299152 0.910514,-0.9299152 z m 1.093057,9.0385965 c 0.974722,-5.69e-4 1.791802,0.772788 1.891408,1.790198 l 0,0.01348 c 0.09975,1.094548 -0.663751,2.067248 -1.706665,2.174294 -1.04366,0.107184 -1.972795,-0.692977 -2.07615,-1.787952 -0.103608,-1.095416 0.658364,-2.071701 1.702267,-2.181034 0.06287,-0.0063 0.12599,-0.0093 0.18914,-0.009 z"/></svg>
