<svg xmlns="http://www.w3.org/2000/svg"  width="32" height="32" viewBox="0 0 32 32"><path d="m 4.341596,6.1930187 c -0.2906688,0 -0.5245462,0.2316544 -0.5245462,0.5165602 l 0,5.1245681 c 0,0.284905 0.2338774,0.514147 0.5245462,0.514147 l 5.2282241,0 c 0.2906687,0 0.5245459,-0.229242 0.5245459,-0.514147 l 0,-5.1245681 c 0,-0.2849058 -0.2338772,-0.5165602 -0.5245459,-0.5165602 l -5.2282241,0 z m 8.89266,0 c -0.290668,0 -0.524546,0.2316544 -0.524546,0.5165602 l 0,5.1245681 c 0,0.284905 0.233878,0.514147 0.524546,0.514147 l 5.228224,0 c 0.290669,0 0.524547,-0.229242 0.524547,-0.514147 l 0,-5.1245681 c 0,-0.2849058 -0.233878,-0.5165602 -0.524547,-0.5165602 l -5.228224,0 z m 8.89266,0 c -0.290669,0 -0.524546,0.2316544 -0.524546,0.5165602 l 0,5.1245681 c 0,0.284905 0.233877,0.514147 0.524546,0.514147 l 5.228224,0 c 0.290669,0 0.524546,-0.229242 0.524546,-0.514147 l 0,-5.1245681 c 0,-0.2849058 -0.233877,-0.5165602 -0.524546,-0.5165602 l -5.228224,0 z M 5.4916576,14.706608 c -0.2906688,0 -0.5245464,0.229241 -0.5245464,0.514146 l 0,2.971429 c 0,0.284907 0.2338776,0.514147 0.5245464,0.514147 l 3.0315327,0 c 0.2906686,0 0.5245462,-0.22924 0.5245462,-0.514147 l 0,-2.971429 c 0,-0.284905 -0.2338776,-0.514146 -0.5245462,-0.514146 l -3.0315327,0 z m 8.8409444,0.05069 c -0.290669,0 -0.524547,0.229242 -0.524547,0.514147 l 0,2.971429 c 0,0.284905 0.233878,0.514145 0.524547,0.514145 l 3.031533,0 c 0.290668,0 0.524545,-0.22924 0.524545,-0.514145 l 0,-2.971429 c 0,-0.284905 -0.233877,-0.514147 -0.524545,-0.514147 l -3.031533,0 z m 8.840943,0 c -0.290668,0 -0.524545,0.229242 -0.524545,0.514147 l 0,2.971429 c 0,0.284905 0.233877,0.514145 0.524545,0.514145 l 3.031533,0 c 0.29067,0 0.524547,-0.22924 0.524547,-0.514145 l 0,-2.971429 c 0,-0.284905 -0.233877,-0.514147 -0.524547,-0.514147 l -3.031533,0 z M 5.4399417,22.141214 c -0.2906687,0 -0.5245463,0.22924 -0.5245463,0.514146 l 0,2.971429 c 0,0.284906 0.2338776,0.514147 0.5245463,0.514147 l 3.0315326,0 c 0.2906688,0 0.5245464,-0.229241 0.5245464,-0.514147 l 0,-2.971429 c 0,-0.284906 -0.2338776,-0.514146 -0.5245464,-0.514146 l -3.0315326,0 z m 8.8409443,0.05069 c -0.290668,0 -0.524547,0.229241 -0.524547,0.514147 l 0,2.971429 c 0,0.284905 0.233879,0.514146 0.524547,0.514146 l 3.031533,0 c 0.290668,0 0.524546,-0.229241 0.524546,-0.514146 l 0,-2.971429 c 0,-0.284906 -0.233878,-0.514147 -0.524546,-0.514147 l -3.031533,0 z m 8.840944,0 c -0.290669,0 -0.524546,0.229241 -0.524546,0.514147 l 0,2.971429 c 0,0.284905 0.233877,0.514146 0.524546,0.514146 l 3.031533,0 c 0.290669,0 0.524546,-0.229241 0.524546,-0.514146 l 0,-2.971429 c 0,-0.284906 -0.233877,-0.514147 -0.524546,-0.514147 l -3.031533,0 z"/></svg>
