<svg version="1.1" xmlns="http://www.w3.org/2000/svg" width="512" height="512" viewBox="0 0 512 512">
<title></title>
<g id="icomoon-ignore">
    <line stroke-width="1" x1="16" y1="0" x2="16" y2="512" stroke="#449FDB" opacity="0.3"></line>
    <line stroke-width="1" x1="32" y1="0" x2="32" y2="512" stroke="#449FDB" opacity="1"></line>
    <line stroke-width="1" x1="48" y1="0" x2="48" y2="512" stroke="#449FDB" opacity="0.3"></line>
    <line stroke-width="1" x1="64" y1="0" x2="64" y2="512" stroke="#449FDB" opacity="1"></line>
    <line stroke-width="1" x1="80" y1="0" x2="80" y2="512" stroke="#449FDB" opacity="0.3"></line>
    <line stroke-width="1" x1="96" y1="0" x2="96" y2="512" stroke="#449FDB" opacity="1"></line>
    <line stroke-width="1" x1="112" y1="0" x2="112" y2="512" stroke="#449FDB" opacity="0.3"></line>
    <line stroke-width="1" x1="128" y1="0" x2="128" y2="512" stroke="#449FDB" opacity="1"></line>
    <line stroke-width="1" x1="144" y1="0" x2="144" y2="512" stroke="#449FDB" opacity="0.3"></line>
    <line stroke-width="1" x1="160" y1="0" x2="160" y2="512" stroke="#449FDB" opacity="1"></line>
    <line stroke-width="1" x1="176" y1="0" x2="176" y2="512" stroke="#449FDB" opacity="0.3"></line>
    <line stroke-width="1" x1="192" y1="0" x2="192" y2="512" stroke="#449FDB" opacity="1"></line>
    <line stroke-width="1" x1="208" y1="0" x2="208" y2="512" stroke="#449FDB" opacity="0.3"></line>
    <line stroke-width="1" x1="224" y1="0" x2="224" y2="512" stroke="#449FDB" opacity="1"></line>
    <line stroke-width="1" x1="240" y1="0" x2="240" y2="512" stroke="#449FDB" opacity="0.3"></line>
    <line stroke-width="1" x1="256" y1="0" x2="256" y2="512" stroke="#449FDB" opacity="1"></line>
    <line stroke-width="1" x1="272" y1="0" x2="272" y2="512" stroke="#449FDB" opacity="0.3"></line>
    <line stroke-width="1" x1="288" y1="0" x2="288" y2="512" stroke="#449FDB" opacity="1"></line>
    <line stroke-width="1" x1="304" y1="0" x2="304" y2="512" stroke="#449FDB" opacity="0.3"></line>
    <line stroke-width="1" x1="320" y1="0" x2="320" y2="512" stroke="#449FDB" opacity="1"></line>
    <line stroke-width="1" x1="336" y1="0" x2="336" y2="512" stroke="#449FDB" opacity="0.3"></line>
    <line stroke-width="1" x1="352" y1="0" x2="352" y2="512" stroke="#449FDB" opacity="1"></line>
    <line stroke-width="1" x1="368" y1="0" x2="368" y2="512" stroke="#449FDB" opacity="0.3"></line>
    <line stroke-width="1" x1="384" y1="0" x2="384" y2="512" stroke="#449FDB" opacity="1"></line>
    <line stroke-width="1" x1="400" y1="0" x2="400" y2="512" stroke="#449FDB" opacity="0.3"></line>
    <line stroke-width="1" x1="416" y1="0" x2="416" y2="512" stroke="#449FDB" opacity="1"></line>
    <line stroke-width="1" x1="432" y1="0" x2="432" y2="512" stroke="#449FDB" opacity="0.3"></line>
    <line stroke-width="1" x1="448" y1="0" x2="448" y2="512" stroke="#449FDB" opacity="1"></line>
    <line stroke-width="1" x1="464" y1="0" x2="464" y2="512" stroke="#449FDB" opacity="0.3"></line>
    <line stroke-width="1" x1="480" y1="0" x2="480" y2="512" stroke="#449FDB" opacity="1"></line>
    <line stroke-width="1" x1="496" y1="0" x2="496" y2="512" stroke="#449FDB" opacity="0.3"></line>
    <line stroke-width="1" x1="0" y1="16" x2="512" y2="16" stroke="#449FDB" opacity="0.3"></line>
    <line stroke-width="1" x1="0" y1="32" x2="512" y2="32" stroke="#449FDB" opacity="1"></line>
    <line stroke-width="1" x1="0" y1="48" x2="512" y2="48" stroke="#449FDB" opacity="0.3"></line>
    <line stroke-width="1" x1="0" y1="64" x2="512" y2="64" stroke="#449FDB" opacity="1"></line>
    <line stroke-width="1" x1="0" y1="80" x2="512" y2="80" stroke="#449FDB" opacity="0.3"></line>
    <line stroke-width="1" x1="0" y1="96" x2="512" y2="96" stroke="#449FDB" opacity="1"></line>
    <line stroke-width="1" x1="0" y1="112" x2="512" y2="112" stroke="#449FDB" opacity="0.3"></line>
    <line stroke-width="1" x1="0" y1="128" x2="512" y2="128" stroke="#449FDB" opacity="1"></line>
    <line stroke-width="1" x1="0" y1="144" x2="512" y2="144" stroke="#449FDB" opacity="0.3"></line>
    <line stroke-width="1" x1="0" y1="160" x2="512" y2="160" stroke="#449FDB" opacity="1"></line>
    <line stroke-width="1" x1="0" y1="176" x2="512" y2="176" stroke="#449FDB" opacity="0.3"></line>
    <line stroke-width="1" x1="0" y1="192" x2="512" y2="192" stroke="#449FDB" opacity="1"></line>
    <line stroke-width="1" x1="0" y1="208" x2="512" y2="208" stroke="#449FDB" opacity="0.3"></line>
    <line stroke-width="1" x1="0" y1="224" x2="512" y2="224" stroke="#449FDB" opacity="1"></line>
    <line stroke-width="1" x1="0" y1="240" x2="512" y2="240" stroke="#449FDB" opacity="0.3"></line>
    <line stroke-width="1" x1="0" y1="256" x2="512" y2="256" stroke="#449FDB" opacity="1"></line>
    <line stroke-width="1" x1="0" y1="272" x2="512" y2="272" stroke="#449FDB" opacity="0.3"></line>
    <line stroke-width="1" x1="0" y1="288" x2="512" y2="288" stroke="#449FDB" opacity="1"></line>
    <line stroke-width="1" x1="0" y1="304" x2="512" y2="304" stroke="#449FDB" opacity="0.3"></line>
    <line stroke-width="1" x1="0" y1="320" x2="512" y2="320" stroke="#449FDB" opacity="1"></line>
    <line stroke-width="1" x1="0" y1="336" x2="512" y2="336" stroke="#449FDB" opacity="0.3"></line>
    <line stroke-width="1" x1="0" y1="352" x2="512" y2="352" stroke="#449FDB" opacity="1"></line>
    <line stroke-width="1" x1="0" y1="368" x2="512" y2="368" stroke="#449FDB" opacity="0.3"></line>
    <line stroke-width="1" x1="0" y1="384" x2="512" y2="384" stroke="#449FDB" opacity="1"></line>
    <line stroke-width="1" x1="0" y1="400" x2="512" y2="400" stroke="#449FDB" opacity="0.3"></line>
    <line stroke-width="1" x1="0" y1="416" x2="512" y2="416" stroke="#449FDB" opacity="1"></line>
    <line stroke-width="1" x1="0" y1="432" x2="512" y2="432" stroke="#449FDB" opacity="0.3"></line>
    <line stroke-width="1" x1="0" y1="448" x2="512" y2="448" stroke="#449FDB" opacity="1"></line>
    <line stroke-width="1" x1="0" y1="464" x2="512" y2="464" stroke="#449FDB" opacity="0.3"></line>
    <line stroke-width="1" x1="0" y1="480" x2="512" y2="480" stroke="#449FDB" opacity="1"></line>
    <line stroke-width="1" x1="0" y1="496" x2="512" y2="496" stroke="#449FDB" opacity="0.3"></line>
</g>
<path d="M155.213 27.309c-67.459 28.365-122.519 84.265-145.71 158.315v0.532c-5.040 16.249-8.714 32.76-10.367 49.041 1.788 4.782 8.263 16.088 10.367 12.26 1.591-16.403 4.938-32.138 9.791-48.507v-0.532c22.208-74.201 74.452-131.252 138.798-159.914 1.325-2.98-0.155-9.572-2.88-11.194zM355.060 27.309c-2.724 1.623-4.204 8.215-2.88 11.194 64.346 28.662 116.591 85.713 138.798 159.914v0.532c4.853 16.369 8.2 32.105 9.791 48.507 2.104 3.827 8.579-7.478 10.366-12.26-1.652-16.281-5.327-32.792-10.366-49.041v-0.532c-23.192-74.049-78.251-129.95-145.71-158.315zM155.213 92.874c-42.572 25.126-76.569 66.165-92.148 118.337v1.066c-10.673 36.085-10.053 72.335-2.303 106.609 5.615 5.961 11.282 9.481 17.854 14.925 0.181-3.025 2.295-2.616 1.728-5.33s-1.768-6.89-6.335-24.52c-4.567-17.63-7.131-50.524 2.879-85.287v-1.066c13.654-46.967 42.992-83.020 79.478-106.609 1.511-1.677 0.94-13.639 0-17.59-0.132-0.551-1.152-0.534-1.152-0.534zM355.060 92.874c0 0-1.021-0.018-1.152 0.534-0.94 3.951-1.51 15.913 0 17.59 36.486 23.589 65.823 59.642 79.478 106.609v1.066c10.011 34.764 7.447 67.658 2.88 85.288s-5.767 21.806-6.335 24.52c-0.567 2.714 1.547 2.305 1.728 5.33 6.572-5.445 12.238-8.965 17.854-14.925 7.749-34.274 8.37-70.524-2.303-106.609v-1.066c-15.579-52.172-49.576-93.21-92.149-118.337zM162.7 150.444c-23.324 18.613-39.594 42.333-48.954 73.561v0.532c-16.588 55.883-0.365 113.901 37.435 152.451l51.834 15.991 1.728-3.198c-60.844-25.718-90.609-95.344-73.143-156.716 8.649-29.794 22.655-46.398 40.891-63.965 0.215-4.19-5.369-17.877-9.791-18.656zM347.572 150.444c-4.422 0.78-10.006 14.466-9.791 18.656 18.236 17.568 32.242 34.171 40.891 63.965 17.466 61.372-12.298 130.998-73.143 156.716l1.728 3.198 51.834-15.991c37.801-38.55 54.024-96.567 37.435-152.451v-0.532c-9.36-31.228-25.63-54.947-48.954-73.56zM192.648 189.356c-14.857 12.348-26.76 29.449-32.828 49.573v0.532c-16.28 54.516 13.315 111.873 66.808 128.464 9.163 2.842 18.518 4.104 27.644 4.264 0.513 0.009 1.215-0.002 1.728 0 9.127-0.16 18.481-1.423 27.644-4.264 53.493-16.592 83.088-73.948 66.808-128.464v-0.532c-6.068-20.125-17.971-37.225-32.828-49.573-6.106 5.74-12.421 10.523-19.582 14.393 13.646 9.764 24.094 24.090 29.373 41.578 12.435 41.591-10.399 85.956-51.257 98.614-6.781 2.101-13.422 3.019-20.158 3.198-0.512-0.003-1.214 0.014-1.728 0-6.736-0.178-13.376-1.097-20.157-3.198-40.858-12.659-63.693-57.022-51.257-98.614 5.279-17.487 15.726-31.813 29.373-41.578-7.161-3.869-13.475-8.652-19.582-14.393zM252.544 213.875c-22.154 1.534-42.059 16.38-48.954 38.912-8.866 29.249 7.73 60.394 36.859 69.296 4.202 1.284 7.901 0.942 12.095 1.066 2.195 0.226 3.664 0 5.184 0 4.1-0.138 7.987 0.19 12.094-1.066 29.13-8.902 45.725-40.046 36.86-69.296-6.896-22.532-26.8-37.379-48.954-38.912-1.646-0.252-4.857 0-5.184 0zM239.298 418.565c-1.865 0.027-3.668 0.178-5.184 0.533-12.141 2.844-18.669 12.508-14.974 21.854 0.445 1.126 1.046 2.199 1.728 3.198 0.448 0.649 1.188 1.408 1.728 2.132 0.279 0.299 0.275 0.784 0.576 1.066 0.159 0.2 0.413 0.338 0.576 0.533 1.006 1.202 1.809 1.514 2.88 2.132 1.039 0.6 2.282 1.187 3.456 1.599 4.343 1.525 9.251 1.959 13.246 3.731 1.088 0.483 2.75 1.661 1.728 3.731s-3.344 3.402-12.095 2.666c-4.363-0.318-7.986-3.166-10.942-4.798-1.459-0.805-2.304-0.533-2.304-0.533v13.327c6.331 4.452 16.053 6.057 25.341 4.798 13.544-1.837 18.426-13.974 15.55-21.854-0.76-1.748-1.497-3.909-2.88-5.33s-2.739-2.68-4.607-3.731c-1.528-1.062-3.418-1.582-4.607-2.132-0.573-0.181-1.137-0.374-1.728-0.533-0.748-0.216-1.527-0.368-2.304-0.533-2.997-0.724-5.526-1.54-8.063-2.666-1.088-0.482-2.174-0.596-1.152-2.666s3.704-3.803 10.367-3.198c4.15 0.376 10.942 4.264 10.942 4.264l0.576-13.327c-3.685-2.752-7.528-3.851-12.671-4.264-1.482-0.118-3.318-0.027-5.184 0zM288.252 418.565c-11.335 0.564-14.058 3.411-18.43 6.93s-5.966 10.572-6.911 14.925c-0.945 4.353-0.845 8.474-0.576 11.727s0.815 5.801 2.303 9.062c1.489 3.26 3.423 5.723 6.335 7.995s7.723 4.5 12.094 5.33c4.372 0.83 9.231 0.57 13.822 0s12.094-3.731 12.094-3.731l-0.576-12.793c0 0-5.776 2.493-9.215 3.198s-7.945 0.91-11.519 0.533c-3.573-0.377-5.209-1.752-6.911-3.731s-1.831-4.053-2.303-6.93c-0.474-2.876-1.151-6.354 0-10.127s3.37-7.365 6.911-8.529c3.541-1.163 10.551-0.691 14.398 0s8.639 3.198 8.639 3.198l0.576-12.793c0 0-9.399-4.828-20.733-4.264zM2.591 419.098v31.983c-0.603 16.923 7.335 24.51 23.613 24.52 16.448 0.010 25.187-8.553 24.189-24.52v-31.983h-7.487v27.185c-0.843 13.344-1.215 22.274-16.702 22.388-15.486 0.116-16.126-9.957-16.126-22.388v-27.185h-7.487zM52.697 419.098v55.437h36.859v-6.397h-29.373v-49.041h-7.487zM72.279 419.098v6.93h20.157v48.507h8.063v-48.507h19.581v-6.93h-47.802zM121.233 419.098v55.437h8.063v-21.322h13.822l14.398 21.322h7.487l1.152-0.533-15.55-22.388c7.508-1.827 13.246-7.984 13.246-15.459v-1.066c0-8.957-8.176-15.991-17.854-15.991h-24.765zM166.155 474.002v0.533h8.063l7.487-17.058h23.037l7.487 17.058h8.063l-23.037-55.437h-7.487l-23.613 54.904zM311.865 419.098v55.437h16.126v-21.322h17.278v21.322h15.55v-55.437h-15.55v21.322h-17.278v-21.322h-16.126zM383.856 419.098l-22.461 55.437h16.702l4.608-12.793h17.854l4.608 12.793h16.702l-23.037-55.437h-14.974zM422.443 419.098v55.437h40.315v-13.327h-25.341v-42.111h-14.974zM465.062 419.098v55.437h40.315v-13.327h-25.341v-42.111h-14.974zM128.72 426.028h16.126c6.292 0 11.518 4.071 11.518 9.595v0.533c0 4.833-3.999 8.638-9.215 9.595h-18.429v-19.723zM193.224 429.759l8.639 20.788h-17.278l8.639-20.788zM391.343 435.090l5.183 14.925h-10.366l5.183-14.925z"></path>
</svg>
