<?xml version="1.0" encoding="UTF-8" standalone="no"?>
<!-- Generated by IcoMoon.io -->

<svg
   xmlns:dc="http://purl.org/dc/elements/1.1/"
   xmlns:cc="http://creativecommons.org/ns#"
   xmlns:rdf="http://www.w3.org/1999/02/22-rdf-syntax-ns#"
   xmlns:svg="http://www.w3.org/2000/svg"
   xmlns="http://www.w3.org/2000/svg"
   xmlns:sodipodi="http://sodipodi.sourceforge.net/DTD/sodipodi-0.dtd"
   xmlns:inkscape="http://www.inkscape.org/namespaces/inkscape"
   version="1.1"
   width="32"
   height="32"
   viewBox="0 0 32 32"
   id="svg2"
   inkscape:version="0.91 r13725"
   sodipodi:docname="fader.svg">
  <metadata
     id="metadata10">
    <rdf:RDF>
      <cc:Work
         rdf:about="">
        <dc:format>image/svg+xml</dc:format>
        <dc:type
           rdf:resource="http://purl.org/dc/dcmitype/StillImage" />
      </cc:Work>
    </rdf:RDF>
  </metadata>
  <defs
     id="defs8">
    <inkscape:perspective
       sodipodi:type="inkscape:persp3d"
       inkscape:vp_x="0 : 16 : 1"
       inkscape:vp_y="0 : 1000 : 0"
       inkscape:vp_z="32 : 16 : 1"
       inkscape:persp3d-origin="16 : 10.666667 : 1"
       id="perspective4214" />
  </defs>
  <sodipodi:namedview
     pagecolor="#ffffff"
     bordercolor="#666666"
     borderopacity="1"
     objecttolerance="10"
     gridtolerance="10"
     guidetolerance="10"
     inkscape:pageopacity="0"
     inkscape:pageshadow="2"
     inkscape:window-width="1263"
     inkscape:window-height="631"
     id="namedview6"
     showgrid="false"
     inkscape:zoom="12.094538"
     inkscape:cx="7.7208048"
     inkscape:cy="17.374511"
     inkscape:window-x="17"
     inkscape:window-y="33"
     inkscape:window-maximized="0"
     inkscape:current-layer="svg2" />
  <path
     style="opacity:1;fill:#000000;fill-opacity:1;fill-rule:evenodd;stroke:none;stroke-width:25.95100021;stroke-linecap:round;stroke-linejoin:round;stroke-miterlimit:4;stroke-dasharray:none;stroke-dashoffset:0;stroke-opacity:1"
     d="m 14.927668,6.121102 0,9.774925 -1.610254,0 0,6.556043 1.610254,0 0,4.055284 1.958417,0 0,-4.055284 1.612976,0 0,-6.556043 -1.612976,0 0,-9.774925 -1.958417,0 z m 8.407595,0 0,3.934189 -1.727214,0 0,6.556043 1.727214,0 0,9.89602 1.955698,0 0,-9.89602 1.498733,0 0,-6.556043 -1.498733,0 0,-3.934189 -1.955698,0 z m -16.8124691,0.118279 0,3.934189 -1.7272152,0 0,6.556043 1.7272152,0 0,9.896021 1.9584174,0 0,-9.896021 1.4960135,0 0,-6.556043 -1.4960135,0 0,-3.934189 -1.9584174,0 z"
     id="rect4237"
     inkscape:connector-curvature="0" />
</svg>
