<?xml version="1.0" encoding="UTF-8" standalone="no"?>
<svg
   xmlns:dc="http://purl.org/dc/elements/1.1/"
   xmlns:cc="http://creativecommons.org/ns#"
   xmlns:rdf="http://www.w3.org/1999/02/22-rdf-syntax-ns#"
   xmlns:svg="http://www.w3.org/2000/svg"
   xmlns="http://www.w3.org/2000/svg"
   xmlns:sodipodi="http://sodipodi.sourceforge.net/DTD/sodipodi-0.dtd"
   xmlns:inkscape="http://www.inkscape.org/namespaces/inkscape"
   version="1.1"
   width="32"
   height="32"
   viewBox="0 0 32 32"
   id="svg2"
   inkscape:version="0.91 r13725"
   sodipodi:docname="onAir.svg">
  <metadata
     id="metadata10">
    <rdf:RDF>
      <cc:Work
         rdf:about="">
        <dc:format>image/svg+xml</dc:format>
        <dc:type
           rdf:resource="http://purl.org/dc/dcmitype/StillImage" />
      </cc:Work>
    </rdf:RDF>
  </metadata>
  <defs
     id="defs8">
    <inkscape:perspective
       sodipodi:type="inkscape:persp3d"
       inkscape:vp_x="0 : 16 : 1"
       inkscape:vp_y="0 : 1000 : 0"
       inkscape:vp_z="32 : 16 : 1"
       inkscape:persp3d-origin="16 : 10.666667 : 1"
       id="perspective4214" />
  </defs>
  <sodipodi:namedview
     pagecolor="#ffffff"
     bordercolor="#666666"
     borderopacity="1"
     objecttolerance="10"
     gridtolerance="10"
     guidetolerance="10"
     inkscape:pageopacity="0"
     inkscape:pageshadow="2"
     inkscape:window-width="1250"
     inkscape:window-height="705"
     id="namedview6"
     showgrid="false"
     inkscape:zoom="5.9519145"
     inkscape:cx="25.454162"
     inkscape:cy="17.383583"
     inkscape:window-x="10"
     inkscape:window-y="0"
     inkscape:window-maximized="0"
     inkscape:current-layer="svg2" />
  <g
     id="g4205"
     transform="translate(22.772396,-0.11108486)" />
  <g
     transform="translate(-0.22217013,-0.11108486)"
     id="g4208" />
  <g
     id="g4224"
     transform="translate(-0.03927443,0.15709772)" />
  <g
     transform="translate(12.685641,0.15709772)"
     id="g4227" />
  <path
     style="opacity:1;fill:#000000;fill-opacity:1;fill-rule:evenodd;stroke:none;stroke-width:25.95100021;stroke-linecap:round;stroke-linejoin:round;stroke-miterlimit:4;stroke-dasharray:none;stroke-dashoffset:0;stroke-opacity:1"
     d="m 7.0569888,5.2453088 c -0.4420156,0.00721 -0.8836646,-0.034681 -1.3242187,0.00107 l 0,3.9609375 C 14.773009,8.9412829 22.772232,15.523607 22.787973,24.894815 l 0.0098,0.229151 c 0.0579,0.647984 0.0312,1.161764 0.01756,1.812249 l 4.083489,0.01915 c 0.02221,-1.713214 0.04291,-0.283371 0.03612,-1.659972 C 26.93541,12.22422 16.733571,5.2417353 7.0569888,5.2453088 Z m -1.3242187,6.4971632 0,3.787109 c 6.5795989,0.0016 10.8150099,4.1184 10.9822019,10.470492 l 0.0059,0.07422 c 0.02222,0.280052 0.0346,0.560833 0.03711,0.841797 l 3.838113,0 c -0.0093,-0.234017 -0.02364,-0.467797 -0.04297,-0.701172 l -0.0098,-0.101562 C 20.461614,16.819476 13.727342,11.82944 5.7327701,11.742472 Z m 2.8867187,8.880859 c -0.1004261,-4.81e-4 -0.2008129,0.0041 -0.3007812,0.01367 -1.6465993,0.166057 -2.8475253,1.634438 -2.6835938,3.28125 0.1631259,1.646439 1.6286809,2.849819 3.2753906,2.689453 1.6471196,-0.160168 2.8532666,-1.62415 2.6953126,-3.271484 l -0.002,-0.01953 C 11.446956,21.786427 10.157775,20.622958 8.6194888,20.623331 Z"
     id="path4827"
     inkscape:connector-curvature="0"
     sodipodi:nodetypes="ccccccccccccccccccccccccc" />
</svg>
