<svg xmlns="http://www.w3.org/2000/svg" width="32" height="32" viewBox="0 0 32 32"><path d="m 7.0569888,5.2453088 c -0.4420156,0.00721 -0.8836646,-0.034681 -1.3242187,0.00107 l 0,3.9609375 C 14.773009,8.9412829 22.772232,15.523607 22.787973,24.894815 l 0.0098,0.229151 c 0.0579,0.647984 0.0312,1.161764 0.01756,1.812249 l 4.083489,0.01915 c 0.02221,-1.713214 0.04291,-0.283371 0.03612,-1.659972 C 26.93541,12.22422 16.733571,5.2417353 7.0569888,5.2453088 Z m -1.3242187,6.4971632 0,3.787109 c 6.5795989,0.0016 10.8150099,4.1184 10.9822019,10.470492 l 0.0059,0.07422 c 0.02222,0.280052 0.0346,0.560833 0.03711,0.841797 l 3.838113,0 c -0.0093,-0.234017 -0.02364,-0.467797 -0.04297,-0.701172 l -0.0098,-0.101562 C 20.461614,16.819476 13.727342,11.82944 5.7327701,11.742472 Z m 2.8867187,8.880859 c -0.1004261,-4.81e-4 -0.2008129,0.0041 -0.3007812,0.01367 -1.6465993,0.166057 -2.8475253,1.634438 -2.6835938,3.28125 0.1631259,1.646439 1.6286809,2.849819 3.2753906,2.689453 1.6471196,-0.160168 2.8532666,-1.62415 2.6953126,-3.271484 l -0.002,-0.01953 C 11.446956,21.786427 10.157775,20.622958 8.6194888,20.623331 Z"/></svg>
