<svg xmlns="http://www.w3.org/2000/svg" width="32" height="32" viewBox="0 0 32 32"><path d="M 13.072266,5.620364 12.240234,6.3977077 14.439453,8.7492702 12.240234,11.09888 13.072266,11.878177 15.21875,9.5832546 17.365234,11.878177 18.197266,11.09888 15.998047,8.7492702 18.197266,6.3977077 17.365234,5.620364 15.21875,7.9152858 13.072266,5.620364 Z m -7.0625004,0.28125 0,1.296875 2.0800782,0 0,4.31836 1.3359374,0 0,-4.31836 2.0820308,0 0,-1.296875 -5.4980464,0 z m 12.8828124,0 0,1.296875 2.080078,0 0,4.31836 1.335938,0 0,-4.31836 2.082031,0 0,-1.296875 -5.498047,0 z m -12.8828124,6.873047 0,2.277344 20.3828124,0 0,-2.277344 -20.3828124,0 z m 7.0625004,4.275391 -0.832032,0.777344 2.199219,2.351562 -2.199219,2.349609 0.832032,0.779297 2.146484,-2.294921 2.146484,2.294921 0.832032,-0.779297 -2.199219,-2.349609 2.199219,-2.351562 -0.832032,-0.777344 -2.146484,2.294922 -2.146484,-2.294922 z m -7.0625004,0.28125 0,1.296875 2.0800782,0 0,4.318359 1.3359374,0 0,-4.318359 2.0820308,0 0,-1.296875 -5.4980464,0 z m 12.8828124,0 0,1.296875 2.080078,0 0,4.318359 1.335938,0 0,-4.318359 2.082031,0 0,-1.296875 -5.498047,0 z m -12.8828124,6.873047 0,2.277344 20.3828124,0 0,-2.277344 -20.3828124,0 z"/></svg>
