<?xml version="1.0" encoding="UTF-8" standalone="no"?>
<svg
   xmlns:dc="http://purl.org/dc/elements/1.1/"
   xmlns:cc="http://creativecommons.org/ns#"
   xmlns:rdf="http://www.w3.org/1999/02/22-rdf-syntax-ns#"
   xmlns:svg="http://www.w3.org/2000/svg"
   xmlns="http://www.w3.org/2000/svg"
   xmlns:sodipodi="http://sodipodi.sourceforge.net/DTD/sodipodi-0.dtd"
   xmlns:inkscape="http://www.inkscape.org/namespaces/inkscape"
   version="1.1"
   width="32"
   height="32"
   viewBox="0 0 32 32"
   id="svg2"
   inkscape:version="0.91 r13725"
   sodipodi:docname="idea.svg">
  <metadata
     id="metadata10">
    <rdf:RDF>
      <cc:Work
         rdf:about="">
        <dc:format>image/svg+xml</dc:format>
        <dc:type
           rdf:resource="http://purl.org/dc/dcmitype/StillImage" />
      </cc:Work>
    </rdf:RDF>
  </metadata>
  <defs
     id="defs8" />
  <sodipodi:namedview
     pagecolor="#ffffff"
     bordercolor="#666666"
     borderopacity="1"
     objecttolerance="10"
     gridtolerance="10"
     guidetolerance="10"
     inkscape:pageopacity="0"
     inkscape:pageshadow="2"
     inkscape:window-width="1260"
     inkscape:window-height="639"
     id="namedview6"
     showgrid="false"
     inkscape:zoom="4.3176439"
     inkscape:cx="15.742895"
     inkscape:cy="-2.4038672"
     inkscape:window-x="8"
     inkscape:window-y="32"
     inkscape:window-maximized="0"
     inkscape:current-layer="svg2" />
  <path
     style="opacity:1;fill:#000000;fill-opacity:1;fill-rule:evenodd;stroke:none;stroke-width:25.95100021;stroke-linecap:round;stroke-linejoin:round;stroke-miterlimit:4;stroke-dasharray:none;stroke-dashoffset:0;stroke-opacity:1"
     d="m 15.9774,5.5661242 c -0.31979,-0.00205 -0.641412,0.010059 -0.967903,0.036175 -0.190487,-6.02e-5 -0.38086,0.00521 -0.57041,0.015827 C 12.125464,5.7500017 10.184134,6.5201283 9.1930985,7.6393877 6.1755394,8.7962294 5.2177262,10.648153 5.4629668,13.03168 c -2.0694281,2.579746 0.2826979,4.075308 2.7599832,4.723061 1.4917841,2.040648 4.748557,2.532426 6.752861,2.444053 0.275611,-0.01571 0.548792,-0.04215 0.817441,-0.07913 0.98848,0.486941 2.169336,0.812828 3.375308,0.9315 4.99669,0.209516 5.69711,-2.974433 5.890509,-3.841303 1.352376,-0.882035 3.290647,-3.494372 2.560114,-6.023089 C 26.697147,9.5199227 25.71485,8.474168 22.662891,8.0508753 20.318404,6.3074881 18.215931,5.580491 15.9774,5.5661242 Z M 15.14424,22.760416 a 3.0624957,0.87134788 0 0 0 -0.305417,0.0045 3.0624957,0.87134788 0 0 0 -2.739772,0.951847 3.0624957,0.87134788 0 0 0 3.343869,0.782278 3.0624957,0.87134788 0 0 0 2.751001,-0.949585 l -0.0023,-0.0068 a 3.0624957,0.87134788 0 0 0 -3.047435,-0.782278 z m -4.623926,2.948239 a 2.03328,0.98611851 0 0 0 -0.202114,0.0068 2.03328,0.98611851 0 0 0 -1.8212732,1.078459 2.03328,0.98611851 0 0 0 2.2210112,0.884019 2.03328,0.98611851 0 0 0 1.828011,-1.076198 l -0.0023,-0.0068 a 2.03328,0.98611851 0 0 0 -2.023389,-0.88628 z"
     id="path4249"
     inkscape:connector-curvature="0" />
</svg>
