<svg xmlns="http://www.w3.org/2000/svg" width="32" height="32" viewBox="0 0 32 32" ><path d="m 12.746832,5.2779964 c -0.240192,4.39e-5 -0.480227,0.00578 -0.719207,0.017216 -3.5131606,0.1700037 -6.247508,1.523684 -6.4552117,3.195751 l -0.013237,0 0,0.1312732 c -0.00172,0.043036 -0.00172,0.086085 0,0.1291212 l 0,15.1050322 c -0.055716,0.235898 -0.059413,0.473907 -0.011036,0.710168 0.3929053,1.874037 3.9109548,3.243259 7.8627387,3.060172 3.49453,-0.163853 6.229809,-1.499752 6.472862,-3.161317 l 0.01764,0 0,-0.146338 c 0.0028,-0.05522 0.0028,-0.110478 0,-0.165705 l 0,-1.140572 c 1.016608,-0.527178 3.640375,-1.906734 4.646165,-2.821299 1.212914,-1.102902 1.733705,-1.643378 2.195125,-2.915988 0.580249,-1.600347 0.752278,-6.420796 -1.072555,-7.4696598 -1.462626,-0.8406774 -2.670877,-0.6737335 -5.708801,-0.746396 0.04329,-0.2154314 -0.0034,-0.4778776 -0.04669,-0.6933091 l -0.0044,-0.02152 C 19.534302,6.6022384 16.439559,5.2773858 12.746832,5.2779964 Z m -0.06618,1.1577872 c 3.1856,-8.632e-4 5.85566,1.0368615 6.179443,2.4016551 l 0.0044,0.017216 C 19.191441,10.322771 16.695853,11.627576 13.287338,11.770642 9.8788558,11.913677 6.8452728,10.840951 6.5078233,9.3732918 6.17158,7.9064744 8.6555309,6.5991906 12.060717,6.4508478 c 0.205931,-0.00948 0.412832,-0.014499 0.619934,-0.015064 z m 11.074165,5.7835554 c 1.14357,0.547352 1.317338,2.921371 0.466236,4.326279 -0.851101,1.404907 -2.970597,2.571393 -4.319652,3.023947 l 0,-7.693473 c 1.44896,0.03342 2.709848,-0.204105 3.853416,0.343247 z" /></svg>
