<?xml version="1.0" encoding="UTF-8" standalone="no"?>
<!-- Generated by IcoMoon.io -->

<svg
   xmlns:dc="http://purl.org/dc/elements/1.1/"
   xmlns:cc="http://creativecommons.org/ns#"
   xmlns:rdf="http://www.w3.org/1999/02/22-rdf-syntax-ns#"
   xmlns:svg="http://www.w3.org/2000/svg"
   xmlns="http://www.w3.org/2000/svg"
   xmlns:sodipodi="http://sodipodi.sourceforge.net/DTD/sodipodi-0.dtd"
   xmlns:inkscape="http://www.inkscape.org/namespaces/inkscape"
   version="1.1"
   width="32"
   height="32"
   viewBox="0 0 32 32"
   id="svg2"
   inkscape:version="0.91 r13725"
   sodipodi:docname="ripple_one.svg">
  <metadata
     id="metadata10">
    <rdf:RDF>
      <cc:Work
         rdf:about="">
        <dc:format>image/svg+xml</dc:format>
        <dc:type
           rdf:resource="http://purl.org/dc/dcmitype/StillImage" />
      </cc:Work>
    </rdf:RDF>
  </metadata>
  <defs
     id="defs8" />
  <sodipodi:namedview
     pagecolor="#ffffff"
     bordercolor="#666666"
     borderopacity="1"
     objecttolerance="10"
     gridtolerance="10"
     guidetolerance="10"
     inkscape:pageopacity="0"
     inkscape:pageshadow="2"
     inkscape:window-width="1267"
     inkscape:window-height="652"
     id="namedview6"
     showgrid="false"
     inkscape:zoom="12.051455"
     inkscape:cx="10.801044"
     inkscape:cy="16.816299"
     inkscape:window-x="8"
     inkscape:window-y="78"
     inkscape:window-maximized="0"
     inkscape:current-layer="svg2" />
  <path
     style="opacity:1;fill:#000000;fill-opacity:1;fill-rule:evenodd;stroke:none;stroke-width:25.95100021;stroke-linecap:round;stroke-linejoin:round;stroke-miterlimit:4;stroke-dasharray:none;stroke-dashoffset:0;stroke-opacity:1"
     d="m 4.341596,6.1930187 c -0.2906688,0 -0.5245462,0.2316544 -0.5245462,0.5165602 l 0,5.1245681 c 0,0.284905 0.2338774,0.514147 0.5245462,0.514147 l 5.2282241,0 c 0.2906687,0 0.5245459,-0.229242 0.5245459,-0.514147 l 0,-5.1245681 c 0,-0.2849058 -0.2338772,-0.5165602 -0.5245459,-0.5165602 l -5.2282241,0 z m 8.89266,0 c -0.290668,0 -0.524546,0.2316544 -0.524546,0.5165602 l 0,5.1245681 c 0,0.284905 0.233878,0.514147 0.524546,0.514147 l 5.228224,0 c 0.290669,0 0.524547,-0.229242 0.524547,-0.514147 l 0,-5.1245681 c 0,-0.2849058 -0.233878,-0.5165602 -0.524547,-0.5165602 l -5.228224,0 z m 8.89266,0 c -0.290669,0 -0.524546,0.2316544 -0.524546,0.5165602 l 0,5.1245681 c 0,0.284905 0.233877,0.514147 0.524546,0.514147 l 5.228224,0 c 0.290669,0 0.524546,-0.229242 0.524546,-0.514147 l 0,-5.1245681 c 0,-0.2849058 -0.233877,-0.5165602 -0.524546,-0.5165602 l -5.228224,0 z M 5.4916576,14.706608 c -0.2906688,0 -0.5245464,0.229241 -0.5245464,0.514146 l 0,2.971429 c 0,0.284907 0.2338776,0.514147 0.5245464,0.514147 l 3.0315327,0 c 0.2906686,0 0.5245462,-0.22924 0.5245462,-0.514147 l 0,-2.971429 c 0,-0.284905 -0.2338776,-0.514146 -0.5245462,-0.514146 l -3.0315327,0 z m 8.8409444,0.05069 c -0.290669,0 -0.524547,0.229242 -0.524547,0.514147 l 0,2.971429 c 0,0.284905 0.233878,0.514145 0.524547,0.514145 l 3.031533,0 c 0.290668,0 0.524545,-0.22924 0.524545,-0.514145 l 0,-2.971429 c 0,-0.284905 -0.233877,-0.514147 -0.524545,-0.514147 l -3.031533,0 z m 8.840943,0 c -0.290668,0 -0.524545,0.229242 -0.524545,0.514147 l 0,2.971429 c 0,0.284905 0.233877,0.514145 0.524545,0.514145 l 3.031533,0 c 0.29067,0 0.524547,-0.22924 0.524547,-0.514145 l 0,-2.971429 c 0,-0.284905 -0.233877,-0.514147 -0.524547,-0.514147 l -3.031533,0 z M 5.4399417,22.141214 c -0.2906687,0 -0.5245463,0.22924 -0.5245463,0.514146 l 0,2.971429 c 0,0.284906 0.2338776,0.514147 0.5245463,0.514147 l 3.0315326,0 c 0.2906688,0 0.5245464,-0.229241 0.5245464,-0.514147 l 0,-2.971429 c 0,-0.284906 -0.2338776,-0.514146 -0.5245464,-0.514146 l -3.0315326,0 z m 8.8409443,0.05069 c -0.290668,0 -0.524547,0.229241 -0.524547,0.514147 l 0,2.971429 c 0,0.284905 0.233879,0.514146 0.524547,0.514146 l 3.031533,0 c 0.290668,0 0.524546,-0.229241 0.524546,-0.514146 l 0,-2.971429 c 0,-0.284906 -0.233878,-0.514147 -0.524546,-0.514147 l -3.031533,0 z m 8.840944,0 c -0.290669,0 -0.524546,0.229241 -0.524546,0.514147 l 0,2.971429 c 0,0.284905 0.233877,0.514146 0.524546,0.514146 l 3.031533,0 c 0.290669,0 0.524546,-0.229241 0.524546,-0.514146 l 0,-2.971429 c 0,-0.284906 -0.233877,-0.514147 -0.524546,-0.514147 l -3.031533,0 z"
     id="rect4214"
     inkscape:connector-curvature="0" />
</svg>
