<?xml version="1.0" encoding="UTF-8" standalone="no"?>
<svg
   xmlns:dc="http://purl.org/dc/elements/1.1/"
   xmlns:cc="http://creativecommons.org/ns#"
   xmlns:rdf="http://www.w3.org/1999/02/22-rdf-syntax-ns#"
   xmlns:svg="http://www.w3.org/2000/svg"
   xmlns="http://www.w3.org/2000/svg"
   xmlns:sodipodi="http://sodipodi.sourceforge.net/DTD/sodipodi-0.dtd"
   xmlns:inkscape="http://www.inkscape.org/namespaces/inkscape"
   version="1.1"
   width="32"
   height="32"
   viewBox="0 0 32 32"
   id="svg2"
   inkscape:version="0.91 r13725"
   sodipodi:docname="newitem.svg">
  <metadata
     id="metadata10">
    <rdf:RDF>
      <cc:Work
         rdf:about="">
        <dc:format>image/svg+xml</dc:format>
        <dc:type
           rdf:resource="http://purl.org/dc/dcmitype/StillImage" />
      </cc:Work>
    </rdf:RDF>
  </metadata>
  <defs
     id="defs8">
    <inkscape:perspective
       sodipodi:type="inkscape:persp3d"
       inkscape:vp_x="0 : 16 : 1"
       inkscape:vp_y="0 : 1000 : 0"
       inkscape:vp_z="32 : 16 : 1"
       inkscape:persp3d-origin="16 : 10.666667 : 1"
       id="perspective4214" />
  </defs>
  <sodipodi:namedview
     pagecolor="#ffffff"
     bordercolor="#666666"
     borderopacity="1"
     objecttolerance="10"
     gridtolerance="10"
     guidetolerance="10"
     inkscape:pageopacity="0"
     inkscape:pageshadow="2"
     inkscape:window-width="1257"
     inkscape:window-height="707"
     id="namedview6"
     showgrid="false"
     inkscape:zoom="13.734189"
     inkscape:cx="17.014757"
     inkscape:cy="14.597207"
     inkscape:window-x="9"
     inkscape:window-y="1"
     inkscape:window-maximized="0"
     inkscape:current-layer="svg2" />
  <g
     id="g4205"
     transform="translate(22.772396,-0.11108486)" />
  <g
     transform="translate(-0.22217013,-0.11108486)"
     id="g4208" />
  <g
     id="g4224"
     transform="translate(-0.03927443,0.15709772)" />
  <g
     transform="translate(12.685641,0.15709772)"
     id="g4227" />
  <path
     style="opacity:1;fill:#000000;fill-opacity:1;fill-rule:evenodd;stroke:none;stroke-width:25.95100021;stroke-linecap:round;stroke-linejoin:round;stroke-miterlimit:4;stroke-dasharray:none;stroke-dashoffset:0;stroke-opacity:1"
     d="m 12.724679,5.6257233 -0.763672,0.7382812 2.34375,2.4277344 -2.34375,2.4277341 0.763672,0.738282 2.318359,-2.4023442 2.320313,2.4023442 0.763671,-0.738282 -2.34375,-2.4277341 2.34375,-2.4277344 L 17.363351,5.6257233 15.043038,8.028067 12.724679,5.6257233 Z m -6.7324218,0.023437 0,1.2578125 2.2773437,0 0,4.8300787 1.0996094,0 0,-4.8300787 2.1992187,0 0,-1.2578125 -5.5761718,0 z m 12.4492178,0 0,1.2578125 2.277344,0 0,4.8300787 1.09961,0 0,-4.8300787 2.199218,0 0,-1.2578125 -5.576172,0 z m -12.4921866,6.9101562 0,2.332031 19.9941406,0 0,-2.332031 -19.9941406,0 z m 0.082031,4.402344 0,10.132812 1.0996094,0 0,-4.851562 4.320312,-5.28125 -4.320312,0 -0.2734375,0 -0.8261719,0 z m 14.3632814,0 4.320312,5.28125 0,4.851562 1.099609,0 0,-10.132812 -0.826171,0 -0.273438,0 -4.320312,0 z m -4.388672,1.041015 -0.0059,0.0078 -3.970703,4.412109 2.166016,0.02539 0,3.908203 3.490234,0 0,-3.90039 2.291016,-0.02539 -3.970703,-4.414063 0,-0.01367 z"
     id="rect4827"
     inkscape:connector-curvature="0" />
</svg>
