<svg xmlns="http://www.w3.org/2000/svg" width="32" height="32" viewBox="0 0 32 32"><path d="m 12.724679,5.6257233 -0.763672,0.7382812 2.34375,2.4277344 -2.34375,2.4277341 0.763672,0.738282 2.318359,-2.4023442 2.320313,2.4023442 0.763671,-0.738282 -2.34375,-2.4277341 2.34375,-2.4277344 L 17.363351,5.6257233 15.043038,8.028067 12.724679,5.6257233 Z m -6.7324218,0.023437 0,1.2578125 2.2773437,0 0,4.8300787 1.0996094,0 0,-4.8300787 2.1992187,0 0,-1.2578125 -5.5761718,0 z m 12.4492178,0 0,1.2578125 2.277344,0 0,4.8300787 1.09961,0 0,-4.8300787 2.199218,0 0,-1.2578125 -5.576172,0 z m -12.4921866,6.9101562 0,2.332031 19.9941406,0 0,-2.332031 -19.9941406,0 z m 0.082031,4.402344 0,10.132812 1.0996094,0 0,-4.851562 4.320312,-5.28125 -4.320312,0 -0.2734375,0 -0.8261719,0 z m 14.3632814,0 4.320312,5.28125 0,4.851562 1.099609,0 0,-10.132812 -0.826171,0 -0.273438,0 -4.320312,0 z m -4.388672,1.041015 -0.0059,0.0078 -3.970703,4.412109 2.166016,0.02539 0,3.908203 3.490234,0 0,-3.90039 2.291016,-0.02539 -3.970703,-4.414063 0,-0.01367 z"/></svg>
