<svg xmlns="http://www.w3.org/2000/svg" width="32" height="32" viewBox="0 0 32 32"><path d="M 10.458829,4.156028 C 8.8180492,4.2120413 6.4178133,4.4333717 6.4178133,4.4333717 l -0.078125,1.296875 -1.3613282,0.091797 c 0,0 -0.6413802,4.3074723 -0.5859374,5.5703123 0.055442,1.262841 0.4101562,2.507812 0.4101562,2.507812 l 1.7167969,1.748047 c 0.8402094,-0.460428 1.6456201,-0.867163 2.5996093,-0.964843 4.3448409,-0.395171 7.3777499,2.156095 7.8398439,6.365234 l 0.0039,0.04492 c 0.14012,1.478494 -0.483831,2.666778 -1.232422,3.951172 l 3.074219,3.128906 9.591797,-9.458984 -13.75,-14.0410158 c 0,0 -1.87175,-0.3732251 -2.917969,-0.5039063 -0.261556,-0.03267 -0.722611,-0.032345 -1.269531,-0.013672 z M 8.8767977,6.9509498 c 0.2736911,-7.826e-4 0.5351582,0.090731 0.7421872,0.2597656 l 0.00586,0.00391 C 10.129109,7.6331826 10.178933,8.3976734 9.7361729,8.9236098 9.2941614,9.4498922 8.5262956,9.5398692 8.0193758,9.124778 7.5118638,8.7078762 7.4593838,7.9416685 7.9021883,7.4138404 7.9287039,7.3819372 7.9567335,7.3513001 7.9861727,7.3220436 8.2264641,7.0854304 8.5477483,6.951562 8.8767977,6.9509498 Z m 1.3730473,8.7636722 a 5.6728554,5.6728554 0 0 0 -0.5664071,0.0293 5.6728554,5.6728554 0 0 0 -5.0761715,6.205078 5.6728554,5.6728554 0 0 0 6.1972656,5.085938 5.6728554,5.6728554 0 0 0 5.095703,-6.189453 l -0.0039,-0.03516 a 5.6728554,5.6728554 0 0 0 -5.64649,-5.095703 z m -0.4375001,2.199218 0.8808591,0 c 0.200636,0 0.361328,0.264665 0.361328,0.59375 l 0,1.957032 2.076172,-0.0059 c 0.329084,-9.52e-4 0.595122,0.160693 0.595703,0.361328 l 0.002,0.878906 c 5.81e-4,0.200635 -0.262713,0.362329 -0.591797,0.363282 l -2.082031,0.0059 0,2.201172 c 0,0.329085 -0.160692,0.59375 -0.361328,0.59375 l -0.8808591,0 c -0.200636,0 -0.361328,-0.264665 -0.361329,-0.59375 l 0,-2.195313 -2.0761714,0.0059 C 7.0457609,22.080808 6.7797221,21.919163 6.7791414,21.718528 l -0.00195,-0.878906 C 6.7766076,20.638987 7.0399016,20.477293 7.3689851,20.47634 l 2.0820308,-0.0059 0,-1.962891 c 2e-6,-0.329085 0.160693,-0.59375 0.361329,-0.59375 z"/></svg>
