<?xml version="1.0" encoding="UTF-8" standalone="no"?>
<svg
   xmlns:dc="http://purl.org/dc/elements/1.1/"
   xmlns:cc="http://creativecommons.org/ns#"
   xmlns:rdf="http://www.w3.org/1999/02/22-rdf-syntax-ns#"
   xmlns:svg="http://www.w3.org/2000/svg"
   xmlns="http://www.w3.org/2000/svg"
   xmlns:sodipodi="http://sodipodi.sourceforge.net/DTD/sodipodi-0.dtd"
   xmlns:inkscape="http://www.inkscape.org/namespaces/inkscape"
   version="1.1"
   width="32"
   height="32"
   viewBox="0 0 32 32"
   id="svg2"
   inkscape:version="0.91 r13725"
   sodipodi:docname="txt.svg">
  <metadata
     id="metadata10">
    <rdf:RDF>
      <cc:Work
         rdf:about="">
        <dc:format>image/svg+xml</dc:format>
        <dc:type
           rdf:resource="http://purl.org/dc/dcmitype/StillImage" />
      </cc:Work>
    </rdf:RDF>
  </metadata>
  <defs
     id="defs8">
    <inkscape:perspective
       sodipodi:type="inkscape:persp3d"
       inkscape:vp_x="0 : 16 : 1"
       inkscape:vp_y="0 : 1000 : 0"
       inkscape:vp_z="32 : 16 : 1"
       inkscape:persp3d-origin="16 : 10.666667 : 1"
       id="perspective4214" />
  </defs>
  <sodipodi:namedview
     pagecolor="#ffffff"
     bordercolor="#666666"
     borderopacity="1"
     objecttolerance="10"
     gridtolerance="10"
     guidetolerance="10"
     inkscape:pageopacity="0"
     inkscape:pageshadow="2"
     inkscape:window-width="1250"
     inkscape:window-height="705"
     id="namedview6"
     showgrid="false"
     inkscape:zoom="9.0021268"
     inkscape:cx="14.951903"
     inkscape:cy="14.031885"
     inkscape:window-x="14"
     inkscape:window-y="0"
     inkscape:window-maximized="0"
     inkscape:current-layer="svg2" />
  <path
     style="opacity:1;fill:#000000;fill-opacity:1;fill-rule:evenodd;stroke:none;stroke-width:25.95100021;stroke-linecap:round;stroke-linejoin:round;stroke-miterlimit:4;stroke-dasharray:none;stroke-dashoffset:0;stroke-opacity:1"
     d="m 4.8869551,7.7827166 0,1.2226562 -1.2207032,0 0,14.8847662 1.2207032,0 0,1 22.2167969,0 0,-1 1,0 0,-14.8847662 -1,0 0,-1.2226562 -22.2167969,0 z m 0.2226562,2.6660154 21.5507807,0 0,11.775391 -21.5507807,0 0,-11.775391 z m 8.5410157,2.894532 -0.814453,0.794922 2.355468,2.412109 -2.355468,2.414063 0.814453,0.794921 2.335937,-2.392578 2.335938,2.392578 0.814453,-0.794921 -2.355469,-2.414063 2.355469,-2.412109 -0.814453,-0.794922 -2.335938,2.392578 -2.335937,-2.392578 z m -6.7558595,0.222656 0,1.177734 2.2382808,0 0,4.832032 1.2167967,0 0,-4.832032 1.964844,0 0,-1.177734 -5.4199215,0 z m 12.7246095,0 0,1.177734 2.238281,0 0,4.832032 1.216797,0 0,-4.832032 1.964843,0 0,-1.177734 -5.419921,0 z"
     id="rect4199"
     inkscape:connector-curvature="0" />
  <g
     id="g4205"
     transform="translate(22.772396,-0.11108486)" />
  <g
     transform="translate(-0.22217013,-0.11108486)"
     id="g4208" />
  <g
     id="g4224"
     transform="translate(-0.03927443,0.15709772)" />
  <g
     transform="translate(12.685641,0.15709772)"
     id="g4227" />
</svg>
