<svg xmlns="http://www.w3.org/2000/svg" width="32" height="32" viewBox="0 0 32 32"><path d="m 4.8869551,7.7827166 0,1.2226562 -1.2207032,0 0,14.8847662 1.2207032,0 0,1 22.2167969,0 0,-1 1,0 0,-14.8847662 -1,0 0,-1.2226562 -22.2167969,0 z m 0.2226562,2.6660154 21.5507807,0 0,11.775391 -21.5507807,0 0,-11.775391 z m 8.5410157,2.894532 -0.814453,0.794922 2.355468,2.412109 -2.355468,2.414063 0.814453,0.794921 2.335937,-2.392578 2.335938,2.392578 0.814453,-0.794921 -2.355469,-2.414063 2.355469,-2.412109 -0.814453,-0.794922 -2.335938,2.392578 -2.335937,-2.392578 z m -6.7558595,0.222656 0,1.177734 2.2382808,0 0,4.832032 1.2167967,0 0,-4.832032 1.964844,0 0,-1.177734 -5.4199215,0 z m 12.7246095,0 0,1.177734 2.238281,0 0,4.832032 1.216797,0 0,-4.832032 1.964843,0 0,-1.177734 -5.419921,0 z"/></svg>
