<svg xmlns="http://www.w3.org/2000/svg" version="1.1" width="32" height="32" viewBox="0 0 32 32"><path d="m 14.927668,6.121102 0,9.774925 -1.610254,0 0,6.556043 1.610254,0 0,4.055284 1.958417,0 0,-4.055284 1.612976,0 0,-6.556043 -1.612976,0 0,-9.774925 -1.958417,0 z m 8.407595,0 0,3.934189 -1.727214,0 0,6.556043 1.727214,0 0,9.89602 1.955698,0 0,-9.89602 1.498733,0 0,-6.556043 -1.498733,0 0,-3.934189 -1.955698,0 z m -16.8124691,0.118279 0,3.934189 -1.7272152,0 0,6.556043 1.7272152,0 0,9.896021 1.9584174,0 0,-9.896021 1.4960135,0 0,-6.556043 -1.4960135,0 0,-3.934189 -1.9584174,0 z"/></svg>
