<?xml version="1.0" encoding="UTF-8" standalone="no"?>
<!-- Generated by IcoMoon.io -->

<svg
   xmlns:dc="http://purl.org/dc/elements/1.1/"
   xmlns:cc="http://creativecommons.org/ns#"
   xmlns:rdf="http://www.w3.org/1999/02/22-rdf-syntax-ns#"
   xmlns:svg="http://www.w3.org/2000/svg"
   xmlns="http://www.w3.org/2000/svg"
   xmlns:sodipodi="http://sodipodi.sourceforge.net/DTD/sodipodi-0.dtd"
   xmlns:inkscape="http://www.inkscape.org/namespaces/inkscape"
   version="1.1"
   width="32"
   height="32"
   viewBox="0 0 32 32"
   id="svg2"
   inkscape:version="0.91 r13725"
   sodipodi:docname="glue.svg">
  <metadata
     id="metadata10">
    <rdf:RDF>
      <cc:Work
         rdf:about="">
        <dc:format>image/svg+xml</dc:format>
        <dc:type
           rdf:resource="http://purl.org/dc/dcmitype/StillImage" />
      </cc:Work>
    </rdf:RDF>
  </metadata>
  <defs
     id="defs8" />
  <sodipodi:namedview
     pagecolor="#ffffff"
     bordercolor="#666666"
     borderopacity="1"
     objecttolerance="10"
     gridtolerance="10"
     guidetolerance="10"
     inkscape:pageopacity="0"
     inkscape:pageshadow="2"
     inkscape:window-width="1256"
     inkscape:window-height="646"
     id="namedview6"
     showgrid="false"
     inkscape:zoom="21.628571"
     inkscape:cx="16.646596"
     inkscape:cy="20.197024"
     inkscape:window-x="19"
     inkscape:window-y="53"
     inkscape:window-maximized="0"
     inkscape:current-layer="svg2" />
  <path
     style="fill:#000000;fill-opacity:1;fill-rule:evenodd;stroke:none;stroke-width:1px;stroke-linecap:butt;stroke-linejoin:miter;stroke-opacity:1"
     d="M 22.310112,4.4776858 10.119264,4.4541514 9.9103295,17.960383 l 5.6236385,5.424505 -7.21e-4,4.305176 1.612816,7.36e-4 0.105566,-4.305912 5.309138,-5.265027 z m -7.01147,1.2006287 2.082747,0 c 0.504751,0 0.910515,0.4144102 0.910515,0.9299152 l 0,5.6895543 c 0,0.515505 -0.405764,0.929914 -0.910515,0.929914 l -2.082747,0 c -0.50475,0 -0.910514,-0.414409 -0.910514,-0.929914 l 0,-5.6895543 c 0,-0.515505 0.405764,-0.9299152 0.910514,-0.9299152 z m 1.093057,9.0385965 c 0.974722,-5.69e-4 1.791802,0.772788 1.891408,1.790198 l 0,0.01348 c 0.09975,1.094548 -0.663751,2.067248 -1.706665,2.174294 -1.04366,0.107184 -1.972795,-0.692977 -2.07615,-1.787952 -0.103608,-1.095416 0.658364,-2.071701 1.702267,-2.181034 0.06287,-0.0063 0.12599,-0.0093 0.18914,-0.009 z"
     id="path4237"
     inkscape:connector-curvature="0"
     sodipodi:nodetypes="cccccccccssssssssscccccccc" />
</svg>
