<?xml version="1.0" encoding="UTF-8" standalone="no"?>
<svg
   xmlns:dc="http://purl.org/dc/elements/1.1/"
   xmlns:cc="http://creativecommons.org/ns#"
   xmlns:rdf="http://www.w3.org/1999/02/22-rdf-syntax-ns#"
   xmlns:svg="http://www.w3.org/2000/svg"
   xmlns="http://www.w3.org/2000/svg"
   xmlns:sodipodi="http://sodipodi.sourceforge.net/DTD/sodipodi-0.dtd"
   xmlns:inkscape="http://www.inkscape.org/namespaces/inkscape"
   version="1.1"
   width="32"
   height="32"
   viewBox="0 0 32 32"
   id="svg2"
   inkscape:version="0.91 r13725"
   sodipodi:docname="selection.svg">
  <metadata
     id="metadata10">
    <rdf:RDF>
      <cc:Work
         rdf:about="">
        <dc:format>image/svg+xml</dc:format>
        <dc:type
           rdf:resource="http://purl.org/dc/dcmitype/StillImage" />
      </cc:Work>
    </rdf:RDF>
  </metadata>
  <defs
     id="defs8" />
  <sodipodi:namedview
     pagecolor="#ffffff"
     bordercolor="#666666"
     borderopacity="1"
     objecttolerance="10"
     gridtolerance="10"
     guidetolerance="10"
     inkscape:pageopacity="0"
     inkscape:pageshadow="2"
     inkscape:window-width="1259"
     inkscape:window-height="688"
     id="namedview6"
     showgrid="false"
     inkscape:zoom="4.2426407"
     inkscape:cx="16.265124"
     inkscape:cy="17.172474"
     inkscape:window-x="19"
     inkscape:window-y="30"
     inkscape:window-maximized="0"
     inkscape:current-layer="svg2" />
  <path
     style="fill:#000000;fill-opacity:1;fill-rule:evenodd;stroke:none;stroke-width:1px;stroke-linecap:butt;stroke-linejoin:miter;stroke-opacity:1"
     d="m 19.579452,4.2996806 6.617188,6.7500004 -0.05469,17.292969 0.609375,0 0.144531,-24.0000007 -7.316406,-0.042969 z m -7.410156,0.00586 -7.3164062,0.042969 0.1445313,24.0000004 0.609375,0 -0.054688,-17.29297 6.6171879,-6.7499991 z m 8.470703,8.0214844 c 0,2e-6 -1.685995,2.551742 -2.259766,3.554688 -0.559667,0.97829 -2.435205,4.312041 -2.507812,4.449218 -0.07746,-0.145776 -1.945009,-3.466414 -2.503907,-4.443359 -0.57377,-1.002946 -2.259765,-3.554685 -2.259765,-3.554687 0,0 -0.0075,0.381309 -0.07031,0.988281 -0.06284,0.606971 0.197266,1.951172 0.197266,1.951172 0,0 0.867279,1.94589 1.732422,3.18164 0.865142,1.23575 1.820314,2.335938 1.820312,2.335938 0,0 -1.237603,-0.309335 -2.246093,-0.01758 -1.00849,0.291758 -1.127825,0.422096 -1.53125,0.832031 -0.403426,0.409934 -0.552735,1.115234 -0.552735,1.115234 -0.08927,1.252236 0.05829,1.660936 0.337891,2.166016 0.279602,0.50508 0.974609,0.617187 0.974609,0.617188 0,0 1.229228,0.212572 1.941406,-0.691407 0.698293,-0.886347 2.108417,-3.002449 2.164063,-3.085937 0.06189,0.09286 1.463509,2.195819 2.160156,3.080078 0.712179,0.903979 1.941407,0.691406 1.941407,0.691406 0,-1e-6 0.695007,-0.112107 0.974609,-0.617187 0.279602,-0.50508 0.42716,-0.913778 0.337891,-2.166016 -1e-6,0 -0.149309,-0.7053 -0.552735,-1.115234 -0.403425,-0.409935 -0.52276,-0.540274 -1.53125,-0.832032 -1.00849,-0.291755 -2.246094,0.01758 -2.246094,0.01758 -2e-6,0 0.955171,-1.100188 1.820313,-2.335938 0.865143,-1.23575 1.732422,-3.181641 1.732422,-3.181641 0,0 0.260105,-1.344201 0.197265,-1.951171 -0.06281,-0.606972 -0.07031,-0.988282 -0.07031,-0.988282 z m -2.158203,9.166016 c 0.351605,-0.0014 1.111863,0.05025 1.55664,0.488281 0.593035,0.584037 0.471238,1.215288 0.429688,1.84375 -0.04155,0.628464 -0.710938,0.878906 -0.710938,0.878906 0,0 -0.70032,-0.06211 -1.210937,-0.748047 C 18.035631,23.269994 17.468123,22.4364 17.468124,22.4364 l -0.433594,-0.875 1.259766,-0.0625 c 0,0 0.0703,-0.0054 0.1875,-0.0059 z m -5.214844,0.0059 c 0.117202,4.76e-4 0.1875,0.0059 0.1875,0.0059 l 1.259766,0.0625 -0.433594,0.875 c 1e-6,0 -0.567507,0.833593 -1.078125,1.519531 -0.510617,0.685939 -1.210938,0.748047 -1.210938,0.748047 0,0 -0.66939,-0.250443 -0.710937,-0.878907 -0.04155,-0.628462 -0.163348,-1.259712 0.429687,-1.84375 0.444777,-0.438027 1.205036,-0.489709 1.556641,-0.488281 z"
     id="path4894"
     inkscape:connector-curvature="0" />
</svg>
