<svg xmlns="http://www.w3.org/2000/svg" width="32" height="32" viewBox="0 0 32 32"><path d="m 16.95234,3.4369849 c -0.30866,0 -0.557014,0.2694335 -0.557014,0.6042924 l 0,18.1599777 c -1.009842,-0.850816 -2.522344,-1.065601 -3.935722,-0.5589 -2.115207,0.759943 -3.358117,2.875233 -2.7772327,4.726532 0.5807867,1.85136 2.7658407,2.738872 4.8823857,1.983099 1.72534,-0.617866 2.921904,-2.167949 2.923679,-3.787466 0.0063,-0.03634 0.02093,-0.06943 0.02093,-0.10781 l 0,-13.941278 c 0.330629,-0.03599 0.834192,-0.03753 1.548137,0.309239 1.068444,0.518955 1.923091,1.768332 2.340512,2.729244 0.417414,0.960914 0.61782,1.403304 0.614547,2.559023 -0.0042,1.481403 -0.37642,2.810989 -0.760993,3.498086 -0.384572,0.687095 -0.930702,1.400096 -0.81068,2.593066 0.641395,-1.091683 1.479496,-2.266211 1.898561,-3.254099 0.419055,-0.987888 0.765601,-2.139622 0.583166,-4.051313 C 22.740175,12.986988 21.96307,11.8378 21.19403,10.657286 20.424988,9.4767695 19.235409,7.8316152 18.626002,6.6655515 18.066988,5.5959125 17.59184,4.2853016 17.509356,4.0554626 l 0,-0.014192 c 0,-0.3348589 -0.248354,-0.6042924 -0.557016,-0.6042857 z"/></svg>
