<svg xmlns="http://www.w3.org/2000/svg" width="32" height="32" viewBox="0 0 32 32"><path d="m 9.8474415,10.571751 a 5.1676221,5.2089629 0 0 0 -0.515625,0.02539 5.1676221,5.2089629 0 0 0 -4.625,5.697266 5.1676221,5.2089629 0 0 0 5.1015625,4.693359 l 0,0.002 0.027344,0 12.1542972,0 0.138671,0 0,-0.0059 a 5.1676221,5.1262808 0 0 0 0.376954,-0.01953 5.1676221,5.1262808 0 0 0 4.642578,-5.591797 l -0.0039,-0.03125 a 5.1676221,5.1262808 0 0 0 -5.658204,-4.578125 5.1676221,5.1262808 0 0 0 -4.625,5.605469 5.1676221,5.1262808 0 0 0 1.775391,3.380859 l -5.449219,0 a 5.1676221,5.2089629 0 0 0 1.806641,-4.466797 l -0.0039,-0.0332 A 5.1676221,5.2089629 0 0 0 9.8474415,10.571751 Z m 12.1816405,1.091797 c 0.362322,0.0075 0.736366,0.07582 1.113281,0.224609 l -0.544922,2.212891 c -0.715521,-0.291675 -1.120815,-0.142556 -1.677734,0.261718 l -1.52539,-1.65625 c 0.574539,-0.540634 1.5478,-1.065475 2.634765,-1.042968 z M 7.5388478,12.32761 9.058379,14.120579 c -0.7102718,0.312263 -0.99621,0.8801 -1.078125,1.570312 l -2.3691406,-0.02344 c -0.010215,-1.0661 0.4456189,-2.668132 1.9277344,-3.339844 z m 4.6191402,0 c 1.482116,0.671712 1.937955,2.273744 1.927735,3.339844 l -2.369141,0.02344 c -0.08192,-0.690212 -0.367853,-1.258049 -1.078125,-1.570312 l 1.519531,-1.792969 z m 13.931641,2.845703 c 0.533473,1.494444 -0.313626,2.889267 -1.09375,3.595703 l -1.648438,-1.65625 c 0.444106,-0.519769 0.659131,-1.100821 0.396485,-1.810547 l 2.345703,-0.128906 z m -5.855469,1.457031 c 0.194718,0.648625 0.276939,0.722739 1.007813,0.927735 l -0.328125,2.300781 c -1.653175,-0.48865 -2.78919,-1.978144 -2.955078,-3.001953 l 2.27539,-0.226563 z m -9.455078,0.710938 1.308594,2.058594 c -1.502861,0.85268 -3.5244096,0.538494 -4.4023439,-0.06641 l 1.3066407,-1.976562 c 0.6179191,0.31824 1.1309232,0.369166 1.7871092,-0.01563 z"/></svg>
