<svg xmlns="http://www.w3.org/2000/svg" width="32" height="32" viewBox="0 0 32 32"><path d="m 4.032873,4.3915496 c 0,0 -0.8079796,0.050759 -1.3731422,0.6483849 C 2.0945682,5.6375611 2.0624583,6.3154797 2.0624583,6.3154797 l -0.032271,19.5599803 8.4088367,-9.840502 15.450345,-0.12817 0.03422,-4.921675 c 0,0 0.159424,-0.867946 -0.333632,-1.4911975 -0.49305,-0.6232518 -1.231551,-0.5680438 -1.231551,-0.5680438 l -8.762351,0.011397 -0.05161,-2.6199864 c 0,0 0.08739,-0.6504651 -0.59867,-1.3172641 -0.686067,-0.666799 -1.460049,-0.6084637 -1.460049,-0.6084637 z m 26.18374,13.3559174 -18.741326,-0.108978 -8.6193282,9.689548 19.8589942,0 z"/></svg>
