<?xml version="1.0" encoding="UTF-8" standalone="no"?>
<svg
   xmlns:dc="http://purl.org/dc/elements/1.1/"
   xmlns:cc="http://creativecommons.org/ns#"
   xmlns:rdf="http://www.w3.org/1999/02/22-rdf-syntax-ns#"
   xmlns:svg="http://www.w3.org/2000/svg"
   xmlns="http://www.w3.org/2000/svg"
   xmlns:xlink="http://www.w3.org/1999/xlink"
   xmlns:sodipodi="http://sodipodi.sourceforge.net/DTD/sodipodi-0.dtd"
   xmlns:inkscape="http://www.inkscape.org/namespaces/inkscape"
   version="1.1"
   width="32"
   height="32"
   viewBox="0 0 32 32"
   id="svg2"
   inkscape:version="0.91 r13725"
   sodipodi:docname="link.svg">
  <metadata
     id="metadata10">
    <rdf:RDF>
      <cc:Work
         rdf:about="">
        <dc:format>image/svg+xml</dc:format>
        <dc:type
           rdf:resource="http://purl.org/dc/dcmitype/StillImage" />
      </cc:Work>
    </rdf:RDF>
  </metadata>
  <defs
     id="defs8">
    <inkscape:perspective
       sodipodi:type="inkscape:persp3d"
       inkscape:vp_x="0 : 16 : 1"
       inkscape:vp_y="0 : 1000 : 0"
       inkscape:vp_z="32 : 16 : 1"
       inkscape:persp3d-origin="16 : 10.666667 : 1"
       id="perspective4214" />
  </defs>
  <sodipodi:namedview
     pagecolor="#ffffff"
     bordercolor="#666666"
     borderopacity="1"
     objecttolerance="10"
     gridtolerance="10"
     guidetolerance="10"
     inkscape:pageopacity="0"
     inkscape:pageshadow="2"
     inkscape:window-width="1261"
     inkscape:window-height="627"
     id="namedview6"
     showgrid="false"
     inkscape:zoom="12.793611"
     inkscape:cx="17.541144"
     inkscape:cy="15.4057"
     inkscape:window-x="17"
     inkscape:window-y="79"
     inkscape:window-maximized="0"
     inkscape:current-layer="svg2" />
  <image
     sodipodi:absref="/Users/McCouman/Desktop/ultraschall-font-icons/Ultraschall/link/link.png"
     xlink:href="link.png"
     width="90"
     height="29"
     preserveAspectRatio="none"
     id="image4212"
     x="-25.804773"
     y="38.773521" />
  <path
     style="opacity:1;fill:#000000;fill-opacity:1;fill-rule:evenodd;stroke:none;stroke-width:25.95100021;stroke-linecap:round;stroke-linejoin:round;stroke-miterlimit:4;stroke-dasharray:none;stroke-dashoffset:0;stroke-opacity:1"
     d="M 10.411347,4.5289698 C 9.9261289,4.5568008 9.4544759,4.7239333 9.0586538,5.0380406 l -3.2976484,2.61633 C 4.7054804,8.4919902 4.606267,10.052706 5.5392123,11.151784 l 3.9679026,4.67464 c 0.9329441,1.099077 2.5345981,1.309978 3.5901221,0.472359 l 0.687315,-0.543335 1.596422,1.867409 -0.728748,0.577599 c -1.055526,0.837619 -1.15474,2.398335 -0.221793,3.497414 l 3.967902,4.67464 c 0.932944,1.099077 2.534598,1.309979 3.590122,0.47236 l 3.297648,-2.616331 c 1.055526,-0.837622 1.15474,-2.398336 0.221794,-3.497414 l -3.967903,-4.674639 c -0.932945,-1.099078 -2.534598,-1.30998 -3.590122,-0.472361 l -0.750683,0.59718 -1.596423,-1.869855 0.792117,-0.628998 c 1.055526,-0.837621 1.15474,-2.398334 0.221794,-3.497412 L 12.646339,5.5103995 C 12.063247,4.8234759 11.220046,4.4825854 10.411347,4.5289698 Z m 0.32416,1.5125275 c 0.285117,0.045126 0.566782,0.1972012 0.777494,0.445437 l 3.831414,4.5131077 c 0.421428,0.49647 0.39636,1.185318 -0.05605,1.544344 l -0.71413,0.565362 -0.760433,-0.890873 c -0.199958,-0.234028 -0.738739,-0.06715 -1.206457,0.374461 -0.467718,0.44161 -0.68254,0.984803 -0.482583,1.218832 l 0.633695,0.741579 -0.526454,0.416067 c -0.452425,0.359027 -1.155498,0.246831 -1.576925,-0.24964 L 6.8236618,10.209514 C 6.4022359,9.713042 6.4272964,9.0217471 6.8797195,8.6627222 L 9.9360769,6.2372938 C 10.162289,6.0577817 10.45039,5.9963705 10.735507,6.0414973 Z m 8.893658,10.5460857 c 0.285117,0.04513 0.564344,0.197202 0.775057,0.445436 l 3.831414,4.513109 c 0.421427,0.49647 0.396359,1.185318 -0.05606,1.544344 l -3.05392,2.425429 c -0.452426,0.359026 -1.157936,0.24683 -1.579362,-0.249641 l -3.831412,-4.513109 c -0.421426,-0.49647 -0.396368,-1.185318 0.05605,-1.544343 l 0.575201,-0.455228 0.831114,0.974088 c 0.199959,0.234029 0.73874,0.0647 1.206456,-0.376907 0.467719,-0.441611 0.68254,-0.984804 0.482584,-1.218833 l -0.701935,-0.822345 0.662942,-0.526204 c 0.226212,-0.179512 0.51675,-0.240923 0.801868,-0.195796 z"
     id="rect4215"
     inkscape:connector-curvature="0" />
</svg>
