<svg xmlns="http://www.w3.org/2000/svg" width="32" height="32" viewBox="0 0 32 32"><path d="M 11.420651,9.9553097 C 11.26121,10.183166 11.11438,10.41346 11.031378,10.548257 10.083936,12.083496 9.6476309,13.637929 9.62645,14.83684 c -0.012712,0.719513 0.2440919,1.370514 0.401247,1.690668 0.172971,0.352371 0.32558,0.511693 0.496483,0.669875 0.170901,0.158186 1.483973,1.125749 1.483973,1.125749 l 0.0022,-0.0032 3.238987,2.269714 c 0.485104,0.339936 1.158186,0.212284 1.507563,-0.286294 l 0.511107,-0.729372 c 0.349377,-0.498578 0.239614,-1.174807 -0.24549,-1.514743 l -3.307766,-2.31791 c -0.426384,-0.298789 -0.984425,-0.216662 -1.353564,0.141405 -0.03885,-0.0089 -0.07635,-0.02011 -0.112467,-0.0335 -0.968157,-0.393533 -0.722305,-2.326337 0.54955,-4.320373 0.05853,-0.09189 0.1783,-0.266395 0.242909,-0.356852 0.06459,-0.09047 0.234244,-0.305379 0.301168,-0.392344 1.432286,-1.8635122 3.163879,-2.7404974 3.871536,-1.9614935 0.02519,0.029493 0.04794,0.060726 0.06987,0.094278 -0.208126,0.4670265 -0.08921,1.0202437 0.34047,1.3213421 l 3.333358,2.335845 c 0.488856,0.342565 1.163414,0.218436 1.510598,-0.277012 l 0.507744,-0.724574 c 0.347186,-0.49545 0.232485,-1.170264 -0.25637,-1.512828 l -3.26458,-2.2876481 0.0022,-0.0032 c 0,0 -1.366383,-0.9122 -1.57475,-1.0200298 -0.208366,-0.1078301 -0.413763,-0.1976906 -0.805509,-0.2424944 -0.355928,-0.040706 -1.057241,-0.064755 -1.729603,0.1879395 -1.120344,0.4210599 -2.429946,1.3515534 -3.543762,2.7564085 -0.111709,0.1406026 -0.223549,0.2812522 -0.38299,0.5091078 z m 3.171533,2.7709803 c -0.347185,0.495449 -0.233606,1.171863 0.25525,1.514427 l 3.333357,2.335845 c 0.429683,0.301099 0.990264,0.224037 1.3582,-0.131004 0.03902,0.0092 0.07615,0.01989 0.112467,0.0335 0.973768,0.399252 0.740513,2.326195 -0.522183,4.308547 -0.0589,0.09259 -0.20299,0.325408 -0.26598,0.417002 -0.06297,0.0916 -0.186109,0.263741 -0.252505,0.350127 -1.440143,1.876109 -3.172945,2.766935 -3.873311,1.991254 -0.02491,-0.02937 -0.04822,-0.06081 -0.06988,-0.09428 0.210562,-0.46919 0.09727,-1.021748 -0.32911,-1.320537 L 11.030728,19.81326 C 10.545624,19.473324 9.8725417,19.600977 9.5231646,20.099554 l -0.511106,0.729372 c -0.3493777,0.498578 -0.2396143,1.174807 0.2454897,1.514743 l 3.2389877,2.269714 -0.0022,0.0032 c 0,0 1.357653,0.903943 1.564674,1.010585 0.207017,0.106646 0.408862,0.195706 0.799112,0.23801 0.354568,0.03844 1.054127,0.05761 1.726087,-0.199941 1.119675,-0.429143 2.431822,-1.369833 3.551456,-2.784407 0.09837,-0.124029 0.264714,-0.340648 0.424463,-0.568289 0.159749,-0.227639 0.253777,-0.380771 0.347801,-0.533767 0.940292,-1.526451 1.367883,-3.075013 1.381238,-4.271793 0.008,-0.718234 -0.253975,-1.369217 -0.413728,-1.689874 -0.175831,-0.352925 -0.330404,-0.515313 -0.502881,-0.674358 -0.172478,-0.159046 -1.49629,-1.131996 -1.49629,-1.131996 l -0.0022,0.0032 -3.264579,-2.287648 c -0.488856,-0.342564 -1.162292,-0.220036 -1.509478,0.275413 l -0.507743,0.724574 z" /></svg>
