<svg xmlns="http://www.w3.org/2000/svg" width="32" height="32" viewBox="0 0 32 32"><path d="m 21.479674,6.1831925 c -0.159151,0 -0.285401,0.1294271 -0.285401,0.2895666 l 0,4.4368299 c 0,0.160139 0.12625,0.289567 0.285401,0.289567 l 5.708029,0 c 0.159152,0 0.28778,-0.129428 0.28778,-0.289567 l 0,-4.4368299 c 0,-0.1601394 -0.128628,-0.2895666 -0.28778,-0.2895666 l -5.708029,0 z M 4.6053128,6.2334478 c -0.1591513,0 -0.2854015,0.1294272 -0.2854015,0.2895667 l 0,4.4392225 c 0,0.160139 0.1262502,0.287173 0.2854015,0.287173 l 5.7080292,0 c 0.159151,0 0.287779,-0.127034 0.28778,-0.287173 l 0,-4.4392225 c -2e-6,-0.1601395 -0.128629,-0.2895666 -0.28778,-0.2895667 l -5.7080292,0 z m 8.4383702,0 c -0.159152,0 -0.28778,0.1294272 -0.28778,0.2895667 l 0,4.4392225 c 0,0.160139 0.128628,0.287173 0.28778,0.287173 l 5.708029,0 c 0.159152,0 0.285402,-0.127034 0.285402,-0.287173 l 0,-4.4392225 c 0,-0.1601395 -0.12625,-0.2895666 -0.285402,-0.2895667 l -5.708029,0 z m 8.485937,7.4234332 c -0.159152,0 -0.285402,0.129428 -0.285402,0.289567 l 0,4.436829 c 0,0.160139 0.12625,0.289567 0.285402,0.289567 l 5.708029,0 c 0.159151,0 0.28778,-0.129428 0.28778,-0.289567 l 0,-4.436829 c 0,-0.160139 -0.128629,-0.289567 -0.28778,-0.289567 l -5.708029,0 z m -16.874362,0.05026 c -0.1591513,0 -0.2854015,0.129427 -0.2854015,0.289566 l 0,4.439223 c 0,0.16014 0.1262502,0.287173 0.2854015,0.287173 l 5.708029,0 c 0.159152,0 0.28778,-0.127033 0.28778,-0.287173 l 0,-4.439223 c -10e-7,-0.160139 -0.128628,-0.289566 -0.28778,-0.289566 l -5.708029,0 z m 8.438369,0 c -0.15915,0 -0.287779,0.129427 -0.287779,0.289566 l 0,4.439223 c 0,0.16014 0.128629,0.287173 0.287779,0.287173 l 5.70803,0 c 0.159152,0 0.285402,-0.127033 0.285402,-0.287173 l 0,-4.439223 c 0,-0.160139 -0.12625,-0.289566 -0.285402,-0.289566 l -5.70803,0 z m 8.386047,7.26788 c -0.159151,0 -0.285401,0.129428 -0.285401,0.289566 l 0,4.43683 c 0,0.160139 0.12625,0.289567 0.285401,0.289567 l 5.708029,0 c 0.159152,0 0.28778,-0.129428 0.28778,-0.289567 l 0,-4.43683 c 0,-0.160138 -0.128628,-0.289566 -0.28778,-0.289566 l -5.708029,0 z m -16.8743612,0.05026 c -0.1591513,0 -0.2854015,0.129427 -0.2854015,0.289566 l 0,4.439223 c 0,0.16014 0.1262502,0.287173 0.2854015,0.287173 l 5.7080292,0 c 0.159151,0 0.287779,-0.127033 0.28778,-0.287173 l 0,-4.439223 c -1e-6,-0.160139 -0.128629,-0.289566 -0.28778,-0.289566 l -5.7080292,0 z m 8.4383702,0 c -0.159152,0 -0.28778,0.129427 -0.28778,0.289566 l 0,4.439223 c 0,0.16014 0.128628,0.287173 0.28778,0.287173 l 5.708029,0 c 0.159152,0 0.285402,-0.127033 0.285402,-0.287173 l 0,-4.439223 c 0,-0.160139 -0.12625,-0.289566 -0.285402,-0.289566 l -5.708029,0 z"/></svg>
